<svg width="24" height="24" viewBox="0 0 24 24" fill="none" xmlns="http://www.w3.org/2000/svg">
<path d="M17.0833 3.2C17.0833 3.08954 16.9938 3 16.8833 3H14.3333C13.1178 3 11.952 3.47411 11.0924 4.31802C10.2329 5.16193 9.75 6.30653 9.75 7.5V10C9.75 10.1105 9.66046 10.2 9.55 10.2H7.2C7.08954 10.2 7 10.2895 7 10.4V13.6C7 13.7105 7.08954 13.8 7.2 13.8H9.55C9.66046 13.8 9.75 13.8895 9.75 14V20.8C9.75 20.9105 9.83954 21 9.95 21H13.2167C13.3271 21 13.4167 20.9105 13.4167 20.8V14C13.4167 13.8895 13.5062 13.8 13.6167 13.8H16.0112C16.1027 13.8 16.1825 13.738 16.205 13.6494L17.0198 10.4494C17.052 10.3229 16.9565 10.2 16.826 10.2H13.6167C13.5062 10.2 13.4167 10.1105 13.4167 10V7.5C13.4167 7.26131 13.5132 7.03239 13.6852 6.8636C13.8571 6.69482 14.0902 6.6 14.3333 6.6H16.8833C16.9938 6.6 17.0833 6.51046 17.0833 6.4V3.2Z" fill="#1E2B3C"/>
</svg>
