<svg width="24" height="24" viewBox="0 0 24 24" fill="none" xmlns="http://www.w3.org/2000/svg">
<path fill-rule="evenodd" clip-rule="evenodd" d="M16.5 4.5H7.5C5.84315 4.5 4.5 5.84315 4.5 7.5V16.5C4.5 18.1569 5.84315 19.5 7.5 19.5H16.5C18.1569 19.5 19.5 18.1569 19.5 16.5V7.5C19.5 5.84315 18.1569 4.5 16.5 4.5ZM7.5 3H16.5C18.9853 3 21 5.01472 21 7.5V16.5C21 18.9853 18.9853 21 16.5 21H7.5C5.01472 21 3 18.9853 3 16.5V7.5C3 5.01472 5.01472 3 7.5 3Z" fill="#1E2B3C"/>
<path fill-rule="evenodd" clip-rule="evenodd" d="M13.7752 12.9211C13.969 12.5477 14.0401 12.1228 13.9784 11.7066C13.9154 11.2822 13.7176 10.8892 13.4142 10.5858C13.1108 10.2824 12.7178 10.0846 12.2934 10.0216C11.8772 9.95993 11.4523 10.031 11.0789 10.2248C10.7055 10.4185 10.4027 10.7251 10.2135 11.1008C10.0244 11.4766 9.95857 11.9024 10.0254 12.3177C10.0922 12.7331 10.2883 13.1167 10.5858 13.4142C10.8832 13.7117 11.2669 13.9078 11.6823 13.9746C12.0976 14.0414 12.5234 13.9756 12.8992 13.7865C13.2749 13.5973 13.5815 13.2945 13.7752 12.9211ZM15.1067 13.612C15.4457 12.9585 15.5701 12.2148 15.4621 11.4866C15.352 10.7438 15.0059 10.0561 14.4749 9.52513C13.9439 8.99414 13.2562 8.64801 12.5134 8.53786C11.7852 8.42988 11.0415 8.55426 10.388 8.89332C9.73456 9.23238 9.20466 9.76886 8.87368 10.4264C8.5427 11.084 8.4275 11.8292 8.54446 12.556C8.66141 13.2829 9.00457 13.9543 9.52513 14.4749C10.0457 14.9954 10.7171 15.3386 11.444 15.4555C12.1708 15.5725 12.916 15.4573 13.5736 15.1263C14.2311 14.7953 14.7676 14.2654 15.1067 13.612Z" fill="#1E2B3C"/>
<path fill-rule="evenodd" clip-rule="evenodd" d="M16.25 8C16.25 7.58579 16.5858 7.25 17 7.25H17.01C17.4242 7.25 17.76 7.58579 17.76 8C17.76 8.41421 17.4242 8.75 17.01 8.75H17C16.5858 8.75 16.25 8.41421 16.25 8Z" fill="#1E2B3C"/>
</svg>
