<svg width="492" height="408" viewBox="0 0 492 408" fill="none" xmlns="http://www.w3.org/2000/svg">
<g clip-path="url(#clip0)">
<path d="M340.834 404.748C327.114 404.766 313.384 405.009 299.673 404.757C274.332 404.298 248.981 404.415 223.64 404.613C199.794 404.802 175.957 404.739 152.12 404.721C152.787 403.424 154.039 403.73 155.093 403.721C160.417 403.658 165.75 403.694 171.074 403.694C186.686 403.694 202.298 403.703 217.901 403.685C221.361 403.685 221.667 403.334 221.235 399.893C221.036 398.325 220.973 396.758 220.973 395.181C220.973 384.75 221.262 374.309 220.892 363.896C220.541 354.068 220.604 344.249 220.532 334.421C220.523 333.16 220.361 331.854 221.036 330.683C221.577 330.043 222.334 329.998 223.081 329.989C227.18 329.962 231.288 329.971 235.387 329.827C240.126 330.223 244.864 330.619 249.612 331.007C250.846 331.106 252.207 331.457 252.81 329.827C263.224 329.845 273.638 329.791 284.052 329.439C288.025 329.304 291.998 329.439 295.971 329.34C297.43 329.304 297.466 330.079 297.484 331.16C297.601 338.655 297.863 346.15 297.872 353.635C297.881 367.95 298.043 382.264 298.34 396.578C298.358 397.307 298.187 398.091 298.664 398.758C299.835 400.487 299.727 402.235 298.754 404C299.322 405.09 300.349 404.577 301.142 404.586C313.637 404.622 326.123 404.613 338.618 404.622C339.374 404.604 340.104 404.694 340.834 404.748Z" fill="#00A9E0"/>
<path d="M165.327 22.2684C163.958 22.962 162.589 23.6556 160.958 24.4844C161.273 19.701 162.571 15.3681 162.67 10.891C163.003 3.96368 168.012 -1.00885 175.795 0.180234C183.921 1.42337 192.191 1.63956 200.398 2.35121C205.47 2.79262 210.524 3.34212 215.596 3.80154C223.794 4.54922 232 5.24285 240.207 5.99053C247.955 6.70218 255.72 7.29672 263.441 8.26961C268.963 8.96324 271.81 13.7826 270.9 19.2686C269.774 26.0518 269.053 32.8981 268.125 39.7083C267.468 44.5187 266.738 49.32 266.08 54.1304C264.9 62.6522 263.747 71.174 262.585 79.6957C261.666 79.8759 261.477 80.5335 261.414 81.3442C261.107 85.2808 260.035 88.9201 257.288 91.9109C256.531 91.0911 256.729 90.1092 256.81 89.1453C257.648 78.7679 259.477 68.5255 260.837 58.2201C262.459 45.9059 264.206 33.6097 265.864 21.2955C266.504 16.5752 265.306 14.5934 260.846 12.8818C258.693 12.2422 256.477 12.0981 254.252 12.008C252.009 11.99 249.757 12.1251 247.54 11.6747C245.955 11.3504 245.144 11.8729 244.64 13.5574C243.234 18.3048 238.271 20.9171 233.667 19.5659C232.082 18.9083 230.433 19.2506 228.802 19.2506C224.001 18.8092 219.163 18.7191 214.397 17.9084C212.686 17.0256 210.857 17.476 209.073 17.44C206.452 17.2238 203.821 17.0977 201.209 16.7013C199.515 15.6383 197.623 16.1518 195.813 16.0257C192.596 15.3861 190.263 12.8458 189.732 9.39564C189.263 6.36888 189.263 6.35987 186.29 6.11665C185.768 6.07161 185.245 6.04458 184.732 5.93648C182.714 5.54012 180.705 5.06269 178.615 5.25186C177.417 5.26087 176.219 5.25186 175.021 5.13475C170.624 4.69335 167.751 7.00846 167.012 11.4135C166.399 15.0168 166.021 18.6651 165.327 22.2684Z" fill="#EBA500"/>
<path d="M403.021 404.73C384.932 404.712 366.851 404.712 348.762 404.712C348.014 404.712 347.104 404.928 346.546 404.595C344.555 403.388 342.717 403.829 340.834 404.748C324.925 404.208 308.979 405.676 293.106 403.694C268.666 404.036 244.234 403.415 219.785 404.127C198.272 404.748 176.732 404.262 155.201 404.262C154.372 404.262 153.544 404.307 152.787 403.865C151.85 403.316 151.625 402.361 151.319 401.433C150.418 398.722 149.373 396.055 147.724 393.704C145.616 390.704 142.967 388.578 139.058 388.38C136.815 388.272 134.607 387.669 132.463 387.002C125.68 384.912 122.527 380.534 122.437 373.517C122.374 367.95 123.392 362.464 123.572 356.924C123.743 351.519 124.824 346.213 125.166 340.826C125.698 332.367 126.734 323.953 127.725 315.549C128.662 307.586 128.968 299.568 130.067 291.623C130.968 285.092 130.941 278.471 131.716 271.913C132.103 268.607 132.355 265.229 131.977 261.86C131.022 260.815 129.698 260.671 128.464 260.698C125.256 260.761 122.103 260.392 118.968 259.86C120.995 260.157 123.058 260.355 125.157 260.455C133.58 260.851 142.049 260.833 150.481 259.338C156.598 258.248 162.715 257.32 168.714 255.635C178.615 252.852 187.948 248.969 196.038 242.447C196.335 242.258 196.479 241.835 196.92 241.835C196.704 247.14 195.848 252.383 195.425 257.653C194.74 266.175 193.794 274.661 192.894 283.155C191.488 296.415 190.389 309.711 188.732 322.945C188.371 325.836 188.876 326.314 191.758 326.665C199.425 327.584 207.154 327.791 214.83 328.647C219.667 329.187 224.523 329.494 229.37 329.908C231.334 330.07 233.352 329.584 235.279 330.304C240.279 331.286 245.378 331.16 250.414 331.664C251.612 331.782 252.891 331.565 252.837 329.818C252.999 329.331 253.135 328.827 253.333 328.349C255.945 321.873 254.054 316.071 248.36 313.801C245.576 312.693 242.883 311.486 240.306 309.964C232.613 305.415 227.46 297.704 229.199 288.326C230.027 283.831 230.442 279.291 231.442 274.796C232.802 268.67 234.297 262.572 235.739 256.464C238.477 244.852 241.18 233.259 238.712 221.215C239.225 219.341 237.838 217.927 237.496 216.26C231.325 204.027 221.352 197.532 207.713 196.685C196.416 195.983 185.534 198.289 174.732 201.316C167.246 203.406 159.823 205.784 152.138 207.153C148.156 207.856 144.382 207.378 140.76 205.613C138.932 204.748 137.427 203.514 136.373 201.766C134.175 198.568 133.058 194.983 132.175 191.217C130.896 185.731 130.481 180.128 129.409 174.624C128.698 170.949 128.68 167.184 128.256 163.472C128.139 162.445 128.319 161.797 129.59 162.436C133.193 164.256 136.905 165.868 140.445 167.823C141.94 168.364 143.31 169.138 144.697 169.886C145.67 170.264 146.652 170.625 147.607 171.084C156.174 175.201 164.516 179.786 174.038 181.588C179.417 182.606 184.741 182.885 190.092 181.921C200.695 180.011 209.848 174.985 217.983 168.129C223.712 163.31 229.054 158.04 234.469 152.869C239.991 147.591 245.216 142.024 250.576 136.583C252.18 134.421 254.18 132.556 255.441 130.133C255.918 129.466 256.405 128.809 256.864 128.142C260.9 122.314 265.954 117.143 266.81 109.486C267.558 102.811 268.819 96.1988 269.008 89.4697C269.071 87.0555 268.278 84.9656 266.693 83.1099C265.504 81.7226 263.963 80.8218 262.621 79.6688C261.233 79.4255 260.963 80.4254 260.873 81.3893C260.513 85.1728 259.297 88.6049 256.9 91.5866C256.621 91.965 256.396 92.3793 256.026 92.9649C256.342 88.8121 256.819 84.8575 256.612 80.8849C256.531 79.3264 256.747 77.3807 254.828 76.9573C253.153 76.5879 252.549 78.3445 251.846 79.5607C248.297 85.6952 246.558 92.4244 245.585 99.3517C245.045 103.234 244.144 107.009 243.072 110.765C241.991 114.567 239.964 117.467 236.351 119.584C226.514 125.349 216.55 130.889 206.524 136.312C200.659 139.483 194.866 142.807 188.849 145.699C187.705 146.248 186.786 146.158 185.687 145.582C180.696 142.987 175.624 140.555 170.579 138.069C163.859 134.754 157.048 131.619 150.391 128.16C149.256 127.746 148.211 127.169 147.157 126.593C144.931 125.719 142.85 124.566 140.733 123.476C140.265 123.26 139.778 123.088 139.292 122.926C139.589 122.962 139.887 122.962 140.211 122.899C143.184 121.638 145.814 119.8 148.508 118.071C149.165 117.098 149.301 115.972 149.418 114.855C150.463 104.486 152.012 94.181 153.354 83.8576C154.769 73.0117 156.255 62.1658 157.67 51.3199C158.291 46.5365 159.922 42.3477 162.922 38.6183C167.543 33.6368 172.21 28.7003 177.237 24.1061C178.254 23.1782 179.11 22.1783 179.489 20.8361C179.66 19.7551 179.732 18.6741 179.39 17.6112C178.029 15.9086 176.399 16.5482 174.921 17.2418C171.732 18.7282 168.57 20.2956 165.318 21.6649C164.282 22.2144 163.255 22.7999 161.841 22.9981C162.03 19.7731 162.733 16.8004 163.147 13.8007C163.282 12.8008 163.696 11.7288 162.715 10.882C157.273 9.04436 152.895 11.936 150.805 15.206C148.508 18.8003 146.967 22.7999 145.661 26.8626C142.382 37.0419 139.688 47.3473 138.202 57.959C136.779 68.1743 135.094 78.3536 133.553 88.5599C133.418 89.4427 133.166 90.0372 132.355 90.5417C123.86 95.7844 115.401 101.081 106.924 106.36C106.807 106.982 107.023 107.36 107.365 107.639C106.681 107.225 105.96 106.883 105.113 106.82C97.861 105.441 91.0324 105.838 85.7444 111.855C82.0238 116.089 79.8437 121.188 78.2942 126.529C74.6637 139.033 74.0331 151.897 74.2042 164.787C74.3304 174.138 74.4295 183.506 75.4384 192.83C75.6817 197.514 76.042 202.198 76.6816 206.838C77.5915 213.504 78.9608 220.089 81.0688 226.485C83.4832 233.808 86.8344 240.691 92.1405 246.384C96.5007 251.059 101.492 254.383 106.933 256.635C102.996 255.05 99.3114 252.906 95.9422 250.059C93.4197 247.924 91.1225 245.591 89.1136 242.961C88.7352 242.465 88.2758 240.934 87.2218 242.474C88.5911 250.942 88.6361 259.5 89.0415 268.03C90.1406 290.758 89.3568 313.477 88.6271 336.205C88.1136 352.32 87.2128 368.409 86.1137 384.498C85.7083 390.407 85.1588 396.307 84.9516 402.226C84.8795 404.352 84.2489 404.784 82.267 404.784C55.8536 404.721 29.4401 404.748 3.02667 404.748C2.50416 404.748 1.97265 404.784 1.45015 404.739C0.540272 404.667 0.206951 404.964 0.0718205 405.964C-0.252492 408.351 1.297 408 2.71136 408C136.058 408 269.404 408 402.76 408C403.057 408 403.363 407.964 403.661 408.009C405.102 408.216 405.426 407.496 405.426 406.189C405.399 404.19 404.012 404.73 403.021 404.73ZM108.212 108.144C117.752 112.558 127.184 117.197 136.625 121.809C137.058 122.016 137.481 122.269 137.914 122.485C137.229 122.26 136.535 122.016 135.878 121.692C127.094 117.368 118.284 113.107 109.446 108.909C108.897 108.648 108.383 108.306 107.861 107.964C107.978 108.027 108.095 108.09 108.212 108.144Z" fill="#192C3F"/>
<path d="M82.9336 86.8844C84.8525 86.6952 84.8975 87.7762 85.2488 88.9743C88.0415 98.6131 100.041 101.955 107.455 95.2801C109.788 93.1812 108.05 91.1453 107.879 89.0734C107.707 87.0916 106.239 88.4609 105.392 88.2267C104.599 88.0105 103.816 87.7492 103.023 87.551C102.591 87.4429 102.311 87.1276 102.347 86.7853C102.401 86.2268 102.879 86.1638 103.374 86.2448C104.645 86.461 105.906 86.8484 107.257 86.7043C106.527 83.11 106.509 83.0559 109.933 81.984C111.158 81.5966 111.167 80.8399 110.942 79.9211C110.464 78.0384 109.978 76.1647 109.41 74.309C107.87 69.2554 104.338 66.2106 99.2934 65.2287C94.2665 64.2468 89.8252 65.6701 86.3839 69.6787C83.8165 72.6695 82.9877 76.2367 82.9967 80.0922C81.6994 79.9751 80.5193 79.1914 79.4472 80.2454C78.7446 81.4435 78.9788 82.6506 79.4382 83.8577C80.2941 85.2359 81.1229 87.0556 82.9336 86.8844Z" fill="#192C3F"/>
<path d="M238.694 221.215C238.153 219.674 237.613 218.143 237.072 216.602C241 210.684 240.559 203.748 241.613 197.163C243.423 185.767 244.739 174.3 246.423 162.887C247.648 154.59 248.585 146.248 249.892 137.961C250.009 137.231 249.946 136.429 250.81 136.06C250.648 134.655 251.892 134.114 252.576 133.259C253.441 132.169 254.234 130.988 255.396 130.169C254.684 135.565 253.973 140.97 253.243 146.365C252.342 153.023 251.423 159.689 250.513 166.346C249.621 172.85 248.711 179.354 247.82 185.857C246.883 192.659 246.099 199.487 244.982 206.252C244.369 209.963 244.631 213.864 242.622 217.332C241.631 219.017 240.216 220.125 238.694 221.215Z" fill="#EBA601"/>
<path d="M195.569 242.204C193.992 243.321 192.479 244.528 190.839 245.537C180.633 251.834 169.426 255.464 157.705 257.572C152.796 258.455 147.868 259.22 142.85 259.554C131.157 260.329 119.554 260.599 108.32 256.383C100.086 253.293 93.4646 248.185 88.5909 240.889C81.3929 230.115 78.9156 217.738 76.7985 205.279C76.0958 201.163 75.8526 196.974 75.4022 192.812C75.0959 198.73 75.9787 204.568 76.7355 210.387C77.339 215.062 78.0417 219.755 79.6002 224.269C80.5642 227.061 81.492 229.854 82.6091 232.601C83.9784 235.961 86.3117 238.871 87.1765 242.456C87.8161 241.88 88.0774 242.456 88.3657 242.862C95.96 253.419 106.599 258.581 119.166 260.572C123.328 261.229 127.517 261.058 131.661 261.707C132.553 262.472 133.625 262.4 134.661 262.274C139.193 261.725 143.76 261.662 148.3 261.067C153.652 260.365 159.021 259.707 164.228 258.401C169.065 257.185 173.867 255.734 178.561 253.87C184.209 251.618 189.29 248.564 194.037 244.87C194.857 244.231 196.028 243.654 195.569 242.204Z" fill="#E5C8C1"/>
<path d="M140.634 124.052C141.058 123.413 140.733 122.971 140.229 122.584C138.725 122.764 137.779 121.593 136.589 121.034L111.203 108.801C109.753 108.072 107.771 108.108 106.879 106.351C106.275 106.504 105.672 106.657 105.077 106.81C109.131 109.828 113.825 111.63 118.32 113.783C125.707 117.323 132.851 121.386 140.634 124.052Z" fill="#E5C8C1"/>
<path d="M79.4378 80.2361C79.4378 81.4432 79.4288 82.6413 79.4288 83.8484C78.4829 82.6413 77.9153 81.4342 79.4378 80.2361Z" fill="#192C3F"/>
<path d="M159.922 57.6796C159.22 62.7152 158.436 67.7328 157.841 72.7774C157.607 74.7592 157.031 76.714 157.247 78.7409C156.931 80.1281 156.688 81.5424 156.436 82.9387C155.814 87.1725 155.184 91.3974 154.58 95.6313C153.868 100.595 153.157 105.558 152.508 110.522C152.328 111.918 152.337 113.341 152.265 114.756C151.706 116.098 151.86 117.575 151.463 118.954C151.157 121.215 150.869 123.476 150.544 125.728C150.409 126.656 150.815 127.691 149.995 128.484C148.698 128.412 147.797 127.484 146.725 126.944C146.112 123.89 146.283 120.935 147.779 118.134C149.139 115.449 148.788 112.468 149.202 109.63C150.733 99.0634 152.112 88.4697 153.517 77.8851C154.805 68.1832 156.004 58.4724 157.355 48.7795C157.931 44.6267 159.85 41.0235 162.652 37.9066C162.382 41.4378 161.472 44.879 161.157 48.4192C161.021 49.9596 161.039 51.5 160.841 53.0314C160.066 54.4997 160.589 56.2023 159.922 57.6796Z" fill="#EBA501"/>
<path d="M136.111 202.442C136.841 197.514 137.607 192.596 138.309 187.668C139.111 182.002 139.85 176.327 140.598 170.652C140.733 169.616 140.787 168.571 140.877 167.535C142.3 167.886 143.589 168.508 144.751 169.409C143.661 177.264 142.571 185.119 141.49 192.965C140.886 197.325 139.868 201.658 140.273 206.108C138.544 205.27 137.201 203.991 136.111 202.442Z" fill="#EBA603"/>
<path d="M221.307 330.62C221.523 329.34 222.541 329.845 223.262 329.764C225.306 329.53 227.415 330.16 229.414 329.304C231.414 329.422 233.45 329.061 235.396 329.818C233.225 330.863 230.901 330.43 228.631 330.512C226.198 330.602 223.748 330.584 221.307 330.62Z" fill="#A3D7EB"/>
<path d="M178.984 17.5841C180.345 18.8182 179.975 20.0073 178.903 21.1874C178.939 19.9893 178.966 18.7822 178.984 17.5841Z" fill="#4D5C6A"/>
<path d="M261.053 12.1611C258.729 12.2152 256.378 12.5035 254.18 11.4135C256.513 11.3234 258.774 11.8188 261.053 12.1611Z" fill="#F4CE84"/>
<path d="M184.957 5.38705C182.758 5.63928 180.641 5.13482 178.524 4.65739C180.714 4.43218 182.849 4.82854 184.957 5.38705Z" fill="#F4CB7E"/>
<path d="M201.128 16.1607C199.344 15.4671 197.38 16.1968 195.605 15.4221C197.443 15.7193 199.452 14.6654 201.128 16.1607Z" fill="#F1BE57"/>
<path d="M214.514 17.1967C212.721 16.9985 210.874 17.6021 209.136 16.7553C210.928 16.9084 212.775 16.386 214.514 17.1967Z" fill="#F5D290"/>
<path d="M234.009 18.9443C232.324 18.8452 230.603 19.3857 228.964 18.593C230.648 18.6921 232.36 18.2957 234.009 18.9443Z" fill="#F5D391"/>
<path d="M159.922 57.6797C160.264 56.1483 159.805 54.4457 160.841 53.0494C160.634 54.6079 160.814 56.2474 159.922 57.6797Z" fill="#F5CE85"/>
<path d="M156.444 82.9387C156.417 81.4793 156.562 80.056 157.255 78.7408C157.363 80.2092 157.039 81.6055 156.444 82.9387Z" fill="#F4CD83"/>
<path d="M151.463 118.963C151.58 117.53 151.328 116.035 152.265 114.765C152.193 116.197 152.13 117.638 151.463 118.963Z" fill="#F4CA7C"/>
<path d="M257.774 262.166L344.258 404.496L492 321.62L406.418 175.687L257.774 262.166Z" fill="#F9535F"/>
</g>
<defs>
<clipPath id="clip0">
<rect width="492" height="408" fill="white"/>
</clipPath>
</defs>
</svg>
