<svg xmlns="http://www.w3.org/2000/svg" width="348" height="246" fill="none" viewBox="0 0 348 246">
  <path fill="#1E2B3C" d="M149.36 227.077c-.222 4.26-2.964 7.779-11.042 8.446-5.261.408-7.225 10.262-7.225 10.262h40.722v-51.679a82.502 82.502 0 01-27.568-6.52c2.297 18.264 5.447 32.637 5.113 39.491zM200.793 227.077c-.223 4.26-2.965 7.779-11.043 8.446-5.261.408-7.225 10.262-7.225 10.262h40.759l-6.151-61.94c-8.485 4.741-17.86 8.002-27.864 9.52 5.002 15.263 11.857 27.155 11.524 33.712zM203.015 30.513l.63-1.26a.883.883 0 00.222.408c.556.556 1.779.26 2.742-.667.963-.926 1.26-2.148.704-2.741-.333-.334-.852-.37-1.445-.148-.296.11-.593-.186-.482-.519 1.26-3.779-.444-8.002-4.113-9.817-4.002-2-8.893-.333-10.857 3.668l-1.704 3.408 2.742 1.37-1.223 2.445.445-.222.333.111c.223.075.482.111.704.111.26 0 .482 0 .741-.037.112 0 .223-.037.371-.074.148.111.296.222.482.334a1.967 1.967 0 01-.297.555c-.148.037-.296.074-.444.074-.297.037-.593.037-.927.037-.296-.037-.593-.073-.889-.148-.148-.037-.297-.074-.445-.148-.074-.148-.148-.296-.185-.482l-1.297 2.63c4.41.63 8.708 1.63 12.858 2.927.519-.444.963-1.074 1.334-1.815z"/>
  <path fill="#EDCFC5" d="M190.751 27.549c.296.074.592.148.889.148.296.037.593 0 .926-.037.148 0 .297-.037.445-.074.111-.185.222-.333.296-.556-.185-.148-.333-.222-.481-.333-.111.037-.223.037-.371.074-.222.037-.482.037-.741.037s-.482-.074-.704-.111l-.334-.111-.444.222-.074.148c.037.186.111.334.185.482.111 0 .259.074.408.11z"/>
  <path fill="#F45F63" d="M243.109 157.691c-1.186-1.668-2.112-4.224-.964-5.52.741-.852 2.816.37 4.595 1.778-2.964-3.149-7.596-8.446-5.743-11.077 1.297-1.852 5.595 1.334 9.226 4.372-2.89-2.927-7.04-8.076-5.521-9.706 2.186-2.408 6.596 1.37 8.893 3 .148.111.26.186.408.297-.445-.667-.741-1.667-.445-3.149.704-3.594 3.001-9.484 3.001-9.484s.63.185 1.334.593a82.666 82.666 0 001.816-17.263c0-37.083-24.382-68.46-57.99-79.019a82.029 82.029 0 00-12.857-2.926 84.68 84.68 0 00-11.969-.852c-28.976 0-54.47 14.892-69.291 37.416.852.259 1.519.63 1.519.63s-2.779 5.704-4.928 8.631c-.889 1.223-1.816 1.704-2.594 1.815.185.037.334.038.482.075 2.742.555 8.522 1.222 8.263 4.445-.185 2.223-6.744 2.667-10.894 2.556 4.706.593 9.93 1.593 9.486 3.816-.667 3.148-7.708 3.37-12.043 3.334 2.223.37 4.521 1.074 4.41 2.186-.186 1.74-2.705 2.778-4.706 3.037a6.482 6.482 0 01-1.26.037c-.852 4.779-1.334 9.743-1.334 14.782 0 34.156 20.676 63.496 50.208 76.128a82.526 82.526 0 0027.569 6.52c1.667.111 3.334.149 5.039.149 4.224 0 8.374-.334 12.413-.927 9.968-1.519 19.379-4.779 27.865-9.52a83.314 83.314 0 0027.42-24.636 14.93 14.93 0 01-1.408-1.518z"/>
  <path fill="#1E2B3C" d="M257.856 128.757c-.704-.407-1.334-.592-1.334-.592s-2.298 5.89-3.002 9.483c-.296 1.482-.037 2.482.445 3.149-.148-.111-.259-.222-.407-.296-2.298-1.63-6.67-5.409-8.893-3.001-1.52 1.667 2.63 6.779 5.521 9.706-3.632-3.038-7.93-6.187-9.227-4.371-1.853 2.63 2.779 7.928 5.744 11.076-1.816-1.37-3.854-2.593-4.595-1.778-1.149 1.297-.185 3.853.963 5.52.26.407.778.926 1.408 1.519 2.075 1.926 5.558 4.223 7.041 2.408 1.037-1.26-.334-3.445-1.742-4.964 2.075 1.037 4.261.481 5.151-.926 1.148-1.816-.186-4.186-2.52-6.52l.037.037c1.556.963 4.632 2.185 5.299-.297.555-2.111-1.186-5.482-3.113-7.483.556.333 1.149.333 1.408.037.667-.667 3.743-4.742 4.002-9.669.148-1.445-1.149-2.482-2.186-3.038zM96.596 96.676c2.038-.26 4.521-1.334 4.706-3.038.111-1.111-2.186-1.778-4.41-2.186 4.299.038 11.376-.185 12.043-3.334.445-2.222-4.78-3.185-9.486-3.815 4.113.11 10.709-.334 10.894-2.556.26-3.26-5.521-3.89-8.263-4.446a2.165 2.165 0 00-.482-.074c.779-.111 1.705-.63 2.594-1.815 2.149-2.964 4.928-8.632 4.928-8.632s-.629-.37-1.519-.63c-1.111-.333-2.631-.481-3.594.52-3.409 3.556-4.298 8.557-4.335 9.52 0 .37.37.815.963 1-2.779-.037-6.447.963-7.596 2.816-1.371 2.185 1.63 3.593 3.372 4.075h.074c-3.335-.112-6.003.518-6.522 2.593-.407 1.593.667 3.593 2.817 4.408-2.076 0-4.595.519-4.817 2.112-.334 2.556 4.631 3.482 7.41 3.556.482-.037.927-.037 1.223-.074zM228.361 23.177c-3.075-2-7.522.111-9.152 1-.259.148-.185.519.111.593 1.519.26 4.706.889 5.892 2.186 2.779 2.963 7.077-1.26 3.149-3.78zM182.932 3.284c1.001 0 2.483 1.111 3.15 1.63.148.111.333 0 .296-.185-.222-1.038-1.074-3.668-3.075-4.224-2.557-.63-2.705 2.779-.371 2.779zM204.83 5.395c.815-.666 2.631-1.963 3.816-1.963 2.78 0 2.631-4.112-.444-3.334-2.446.63-3.409 3.853-3.706 5.075-.037.185.186.334.334.222z"/>
</svg>
