<svg width="1195" height="844" viewBox="0 0 1195 844" fill="none" xmlns="http://www.w3.org/2000/svg">
<path d="M830.033 265.839C830.033 265.839 831.516 266.647 832.729 266.243C833.538 265.973 829.898 262.74 826.662 260.18C826.528 261.662 826.258 263.144 825.988 264.626C828.55 265.434 830.033 265.839 830.033 265.839Z" fill="white"/>
<path d="M833.002 220.569C832.058 220.434 830.44 220.164 828.418 219.895C828.418 220.164 828.418 220.569 828.418 220.838C830.305 220.703 831.923 220.569 833.002 220.569Z" fill="white"/>
<path d="M165.381 721.657C164.302 724.217 163.358 726.911 162.819 729.606C160.527 740.79 159.044 752.242 159.584 763.56C159.853 769.219 160.662 774.878 162.415 780.133C163.628 783.771 165.381 787.274 167.673 790.373C169.29 768.007 171.313 738.095 173.739 704.68C172.122 707.779 170.504 710.878 168.886 713.977C167.673 716.402 166.459 719.097 165.381 721.657Z" fill="white"/>
<path d="M368.688 356.25L311.525 297.638C303.84 299.525 296.156 301.276 288.471 302.893C282 303.971 275.529 305.049 268.923 305.992C262.451 306.935 255.845 307.744 249.374 308.417C262.182 305.723 274.989 302.893 287.797 299.66C300.605 296.965 313.412 294.001 325.95 290.632C338.623 287.264 351.161 283.491 363.43 279.179C369.631 277.024 375.698 274.733 381.63 272.173C387.562 269.613 393.494 266.918 399.291 263.819C404.953 260.72 410.481 257.352 415.604 253.31L419.514 250.48C420.862 249.537 422.075 248.459 423.289 247.381L427.063 244.282L428.951 242.665L430.704 241.048C440.545 232.425 449.578 222.993 458.341 213.292C467.104 203.591 475.328 193.486 483.282 182.976C491.641 172.871 499.595 162.496 507.415 151.852C507.415 151.852 561.072 113.856 572.666 106.58C584.261 99.3039 600.843 95.2618 595.316 86.6385C591.271 80.1711 553.927 97.9565 553.927 97.9565C553.927 97.9565 557.567 88.6596 565.656 79.6321C574.689 69.392 597.608 63.0593 594.911 52.6845C593.024 45.4087 550.421 66.2931 550.421 66.2931C550.421 66.2931 554.87 59.5562 559.05 54.9751C564.038 49.5855 578.194 46.3518 570.375 38.1328C566.869 34.3601 541.658 45.5434 525.885 60.3646C520.088 65.8888 514.56 70.0657 510.111 73.1647C513.212 68.1794 515.908 63.5983 516.852 61.5772C519.144 56.053 522.649 47.1602 516.852 44.7349C514.156 43.657 496.495 61.173 495.416 65.4846C495.281 66.0236 495.011 66.832 494.607 67.9099L463.329 128.003L376.237 202.379L369.092 203.726L255.576 225.554C250.722 225.149 245.599 225.823 239.937 227.44C203.806 238.623 204.21 268.939 195.851 391.281C182.37 485.868 64 776.363 64 776.363L147.182 843.193L207.985 843.732C208.255 837.938 207.715 832.145 206.502 826.62C205.289 821.096 202.997 815.572 199.357 811.53C197.469 809.509 195.312 807.757 192.751 806.679C191.537 806.14 190.189 805.601 188.841 805.332C187.493 805.062 186.01 804.793 184.662 804.523C178.865 803.311 173.202 800.616 168.618 796.439C164.169 792.262 161.069 786.738 159.181 781.079C157.294 775.42 156.35 769.491 156.08 763.563C155.541 751.706 157.159 740.119 159.451 728.666C160.125 725.702 161.068 722.872 162.282 720.177C163.36 717.483 164.574 714.788 165.922 712.228C168.484 706.973 171.18 701.853 174.011 696.868C179.673 686.762 185.47 676.792 191.268 666.821C202.727 646.88 214.052 626.669 224.433 606.054C245.33 564.959 263.125 522.247 275.663 477.918C276.472 475.089 277.146 472.394 277.955 469.564C278.764 466.735 279.438 464.04 279.978 461.211C281.191 455.552 282.135 449.893 283.078 444.234C284.831 432.916 285.91 421.463 286.718 409.875C288.876 386.97 288.741 363.795 287.527 340.755C288.741 352.207 289.819 363.795 290.089 375.382C290.224 378.212 290.358 381.176 290.358 384.006L290.493 392.629C290.359 398.423 290.359 404.216 290.089 410.01C289.415 421.598 288.067 433.185 286.449 444.638C285.64 450.432 284.561 456.091 283.348 461.75C282.809 464.579 282 467.409 281.326 470.238C280.652 473.068 279.843 475.762 279.034 478.592C266.496 523.19 248.565 566.172 227.668 607.401C217.153 628.016 205.828 648.227 194.368 668.303C188.571 678.274 182.774 688.244 177.247 698.35C176.168 700.371 175.09 702.392 174.011 704.278C171.719 737.693 169.562 767.605 167.944 789.972C168.888 791.319 169.967 792.532 171.18 793.744C175.09 797.652 180.078 800.346 185.471 801.694C186.819 802.098 188.167 802.368 189.65 802.772C191.133 803.176 192.481 803.715 193.829 804.389C196.526 805.736 198.952 807.757 200.84 810.048C204.615 814.763 206.637 820.422 207.581 826.216C208.524 832.01 208.659 837.804 208.12 843.597C208.12 843.597 208.12 843.597 208.12 843.463L305.997 844.002C305.997 844.002 311.525 816.246 286.449 806.814C249.913 793.205 243.307 769.896 245.06 753.458C251.396 694.577 279.708 510.39 293.729 400.039C303.301 407.046 314.356 413.917 326.894 420.115C363.969 438.17 403.47 413.783 430.973 388.587C417.761 374.574 406.167 358.944 396.729 342.102L368.688 356.25Z" fill="#1E2B3C"/>
<path d="M755.886 271.363C763.031 263.683 790.804 271.228 790.804 271.228C790.804 271.228 780.019 264.222 777.322 263.009C771.121 259.91 778.131 254.79 789.86 255.598C794.579 255.868 816.824 262.2 825.991 264.76C826.261 263.278 826.396 261.796 826.665 260.314C825.182 259.101 823.834 258.158 823.025 257.619C820.599 256.003 818.576 253.173 822.621 251.556C823.565 251.152 825.317 251.421 827.609 251.96C827.879 249.67 828.013 247.379 828.148 245.089C828.418 240.238 828.688 235.253 828.688 230.402C828.688 227.169 828.553 224.07 828.418 220.971C828.418 220.701 828.418 220.297 828.418 220.027C828.283 215.985 828.013 212.078 827.609 208.036C816.284 91.3525 717.868 0 598.15 0C479.78 0 382.307 89.1966 369.095 203.994L376.24 202.646L463.332 128.271L494.61 68.1775C495.014 67.2343 495.284 66.4259 495.419 65.7522C496.632 61.4406 514.293 44.0594 516.855 45.0025C522.652 47.2931 519.147 56.3205 516.855 61.8448C515.911 63.8659 513.215 68.5817 510.114 73.4323C514.563 70.3333 519.956 66.1564 525.888 60.6322C541.661 45.811 566.872 34.6277 570.377 38.4004C578.197 46.6194 564.041 49.8531 559.053 55.2426C554.873 59.8237 550.424 66.5606 550.424 66.5606C550.424 66.5606 593.027 45.5415 594.914 52.9521C597.61 63.3269 574.691 69.6596 565.659 79.8997C557.57 89.0619 553.929 98.2241 553.929 98.2241C553.929 98.2241 591.274 80.4387 595.319 86.9061C600.846 95.5294 584.263 99.4368 572.669 106.847C561.075 114.123 507.417 152.119 507.417 152.119C504.182 157.778 500.677 163.437 497.037 168.827C495.284 171.656 493.396 174.351 491.644 177.046L485.982 185.13C478.027 195.64 469.669 205.745 460.905 215.581C452.142 225.417 442.975 234.849 432.998 243.607L431.111 245.223L429.223 246.84L425.449 249.939C424.1 251.017 422.887 252.095 421.539 253.038L417.494 256.002C412.236 260.045 406.574 263.548 400.777 266.647C394.98 269.88 388.913 272.575 382.846 275.135C379.476 276.617 375.97 277.965 372.6 279.312C377.453 301.813 385.543 322.967 396.463 342.504C405.9 359.481 417.494 375.111 430.706 388.989C446.75 405.831 465.354 420.248 485.712 431.701H426.797V843.596H839.068V431.566H709.913C761.009 403.137 800.106 355.843 817.902 299.119C797.275 290.091 775.3 280.66 767.75 280.121C757.908 279.582 751.302 276.213 755.886 271.363Z" fill="#1E98F5"/>
<path d="M1055.05 235.254C1046.82 237.275 1040.35 240.778 1035.36 245.898L1035.23 245.763L1034.42 246.841C1032.4 249.132 1030.51 251.826 1028.89 254.656L993.705 305.048L942.474 249.266L942.609 249.132L941.126 247.649L940.452 246.976L897.041 205.476C897.041 205.476 884.908 200.895 876.279 196.988C867.651 193.081 859.427 190.251 855.517 193.619C850.259 198.201 869.538 208.306 871.695 208.71C869.404 208.575 844.193 207.093 827.475 207.632C827.88 211.54 828.149 215.582 828.284 219.624C830.306 219.893 831.924 220.163 832.868 220.298C831.789 220.298 830.172 220.432 828.284 220.567C828.419 223.666 828.554 226.9 828.554 229.999C828.554 234.984 828.419 239.835 828.015 244.685C830.441 244.416 833.003 244.146 835.564 243.877C853.495 241.856 876.684 250.883 876.684 250.883C887.199 257.081 893.671 269.477 901.086 280.795C900.951 280.93 900.951 280.93 900.951 280.93C900.951 280.93 906.074 289.822 914.837 302.218C918.073 303.701 921.443 305.048 924.679 306.53L945.98 317.444L987.099 338.463L1008.8 295.616L1019.99 273.384C1024.17 266.243 1028.35 259.102 1032.67 251.961C1029.57 259.641 1026.33 267.321 1022.96 274.867L1011.77 296.964L989.391 341.292L988.582 342.775L987.099 341.966L944.497 320.139L923.196 309.225C916.32 305.183 909.444 301.14 902.703 296.829C903.108 296.964 903.512 297.098 903.917 297.368C897.176 289.418 890.435 281.873 886.66 278.639C876.549 270.151 857.405 263.549 851.338 261.123C846.754 259.237 834.89 253.308 827.745 251.422C825.588 250.748 823.835 250.614 822.757 251.018C818.712 252.635 820.734 255.464 823.161 257.081C823.97 257.62 825.318 258.563 826.801 259.776C830.037 262.336 833.677 265.57 832.868 265.839C831.655 266.243 830.172 265.435 830.172 265.435C830.172 265.435 828.689 265.031 826.127 264.222C816.959 261.662 794.715 255.33 789.996 255.06C778.132 254.252 771.122 259.372 777.458 262.471C780.02 263.818 790.94 270.69 790.94 270.69C790.94 270.69 763.167 263.279 756.022 270.824C751.573 275.675 758.044 279.043 768.156 279.582C775.705 279.987 797.681 289.553 818.308 298.58C826.397 302.084 834.216 305.587 840.957 308.416C854.843 314.345 873.987 331.996 887.604 345.874V346.008C895.828 354.766 904.456 362.985 913.624 370.665C922.387 378.75 931.824 386.026 941.8 392.493C951.777 398.826 962.562 404.08 974.022 406.775C985.347 409.605 997.615 409.47 1008.27 404.754C1013.66 402.464 1018.65 399.499 1023.36 395.861C1028.08 392.358 1032.53 388.451 1036.71 384.274C1040.89 380.097 1044.94 375.651 1048.71 371.07C1052.49 366.488 1056.13 361.773 1059.63 356.922C1066.51 347.221 1072.98 337.116 1078.91 326.741C1085.38 316.635 1091.31 306.261 1096.98 295.751C1094.82 301.275 1092.39 306.799 1089.83 312.324C1087.27 317.713 1084.71 323.103 1081.88 328.492C1075.94 338.867 1069.47 349.107 1062.46 358.943C1058.96 363.794 1055.32 368.644 1051.41 373.36C1047.63 378.076 1043.45 382.522 1039.27 386.834C1035.09 391.146 1030.38 395.188 1025.52 398.826C1024.85 399.23 1024.31 399.769 1023.63 400.173C1023.63 400.443 1023.63 400.577 1023.63 400.847C1023.63 508.368 1022.42 693.363 1028.89 753.187C1030.65 769.76 1024.17 792.935 987.504 806.543C962.293 815.975 967.955 843.731 967.955 843.731L986.964 843.596V843.731C985.346 835.916 985.886 827.562 989.391 820.152C991.144 816.514 993.705 813.146 996.941 810.451C998.559 809.103 1000.31 807.891 1002.06 806.948C1003.82 805.87 1005.84 805.061 1007.59 804.388C1014.87 801.693 1021.88 797.92 1027.95 793.339C1031.05 790.914 1033.88 788.354 1036.31 785.389C1038.73 782.425 1040.89 779.191 1042.51 775.823C1045.74 768.951 1046.96 761.137 1046.15 753.591C1045.34 745.642 1044.53 737.827 1043.86 729.877C1042.37 714.113 1041.03 698.214 1039.81 682.449C1037.25 650.786 1034.82 619.123 1032.53 587.459C1031.45 571.695 1030.24 555.796 1029.3 540.031C1028.76 524.132 1028.22 508.233 1027.81 492.469L1032.53 539.897L1035.9 587.324C1038.19 618.988 1040.62 650.651 1043.18 682.18C1044.53 697.944 1045.88 713.844 1047.23 729.608C1047.9 737.557 1048.71 745.372 1049.52 753.322C1050.46 761.541 1049.12 769.895 1045.61 777.44C1043.86 781.213 1041.57 784.581 1039 787.815C1036.31 790.914 1033.34 793.743 1030.11 796.169C1023.63 801.154 1016.35 804.792 1008.94 807.891L1006.24 808.969C1005.3 809.238 1004.49 809.642 1003.68 810.047C1001.93 810.855 1000.31 811.798 998.828 812.876C995.727 815.032 993.166 817.996 991.279 821.365C989.391 824.733 988.178 828.506 987.504 832.278C986.83 836.186 986.695 840.093 987.234 844.001L1127.58 843.192L1128.39 832.278C1128.39 832.278 1130.55 516.048 1126.77 407.718C1120.43 242.395 1092.8 226.226 1055.05 235.254ZM861.449 283.894C856.461 281.334 851.068 279.717 845.676 278.774C844.327 278.504 842.979 278.37 841.496 278.37C840.148 278.235 838.665 278.235 837.182 278.235C834.351 278.1 831.385 277.966 828.554 277.696C822.757 277.292 817.094 276.618 811.432 276.079C805.77 275.54 799.972 275.001 794.445 275.001C793.097 275.001 791.749 275.136 790.4 275.406C789.726 275.54 789.187 275.675 788.783 275.944C788.243 276.214 787.704 276.618 787.165 276.888C786.76 277.292 786.356 277.561 786.221 277.966C786.086 278.37 786.086 278.504 786.086 278.774C786.221 279.313 787.165 280.256 788.243 280.93C790.4 282.277 793.097 283.355 795.658 284.298C797.007 284.702 798.355 285.241 799.838 285.78L801.86 286.589C802.534 286.858 803.208 287.128 803.882 287.532C809.14 290.227 813.724 293.46 818.982 295.886C813.32 294.673 807.927 292.248 802.534 290.496C801.186 290.092 799.838 289.553 798.624 289.014C797.276 288.475 795.928 288.071 794.58 287.667C791.749 286.724 789.052 285.646 786.356 284.029C785.682 283.625 785.008 283.086 784.468 282.412C783.794 281.738 783.255 281.065 782.985 279.852C782.581 278.774 782.851 277.427 783.39 276.483C783.929 275.54 784.603 274.867 785.277 274.328C785.952 273.789 786.626 273.384 787.3 272.98C788.109 272.576 789.052 272.307 789.726 272.172C791.344 271.902 792.827 271.768 794.31 271.768C800.242 271.768 805.905 272.307 811.702 272.845C817.364 273.384 823.161 273.923 828.823 274.462C831.655 274.732 834.486 274.867 837.317 275.001C838.665 275.001 840.148 275.136 841.631 275.136C843.114 275.271 844.597 275.406 846.08 275.675C851.877 276.618 857.54 278.504 862.932 281.065C868.055 284.163 872.639 287.801 876.414 292.248C871.695 288.61 866.707 285.915 861.449 283.894Z" fill="#1E2B3C"/>
<path d="M987.096 832.278C987.77 828.371 988.984 824.598 990.871 821.365C992.759 817.996 995.32 815.167 998.421 812.876C999.904 811.798 1001.66 810.855 1003.27 810.047C1004.08 809.642 1005.03 809.238 1005.84 808.969L1008.53 807.891C1015.95 804.926 1023.36 801.289 1029.7 796.169C1032.93 793.743 1035.9 790.914 1038.6 787.815C1041.16 784.716 1043.58 781.213 1045.2 777.44C1048.71 770.029 1050.06 761.541 1049.11 753.322C1048.3 745.507 1047.49 737.557 1046.82 729.608C1045.34 713.844 1043.99 698.079 1042.78 682.18C1040.21 650.517 1037.79 618.988 1035.5 587.324L1032.13 539.897L1027.54 492.469C1027.81 508.368 1028.49 524.267 1029.02 540.031C1029.97 555.93 1031.18 571.695 1032.26 587.459C1034.55 619.123 1036.98 650.786 1039.54 682.45C1040.89 698.214 1042.24 714.113 1043.58 729.877C1044.26 737.827 1045.07 745.642 1045.88 753.591C1046.69 761.137 1045.47 768.951 1042.24 775.823C1040.62 779.326 1038.46 782.425 1036.03 785.39C1033.61 788.354 1030.78 790.914 1027.68 793.339C1021.61 798.055 1014.6 801.693 1007.32 804.388C1005.57 805.061 1003.54 805.87 1001.79 806.948C1000.04 807.891 998.286 809.103 996.668 810.451C993.433 813.146 990.871 816.514 989.118 820.152C985.613 827.563 985.074 836.051 986.692 843.731C986.287 840.093 986.422 836.186 987.096 832.278Z" fill="#EDCFC5"/>
<path d="M1027.81 199.953C1039.81 211.002 1058.42 210.328 1069.47 198.336L1072.98 194.564C1072.98 195.237 1073.11 195.776 1073.38 196.315C1074.73 198.875 1079.31 199.145 1083.63 196.854C1087.94 194.564 1090.23 190.656 1088.88 188.096C1088.08 186.614 1086.19 185.94 1084.03 186.075C1082.82 186.075 1082.14 184.728 1082.82 183.785C1091.04 171.928 1089.56 155.49 1078.5 145.384C1066.5 134.336 1047.9 135.009 1036.84 147.001L1027.41 157.241L1035.63 164.787L1029.83 171.119C1032.4 173.41 1035.77 174.622 1039.27 174.622C1040.22 174.622 1041.02 175.296 1041.02 176.239C1041.02 177.182 1040.35 177.991 1039.41 177.991C1039.27 177.991 1039 177.991 1038.87 177.991C1034.69 177.991 1030.64 176.509 1027.54 173.679L1018.91 182.976C1019.72 189.039 1022.82 195.237 1027.81 199.953Z" fill="#1E2B3C"/>
<path d="M1039.27 177.719C1040.22 177.719 1040.89 176.911 1040.89 175.968C1040.89 175.025 1040.08 174.351 1039.14 174.351C1035.63 174.486 1032.26 173.273 1029.7 170.848L1027.41 173.273C1030.51 176.102 1034.56 177.585 1038.74 177.585C1038.87 177.719 1039 177.719 1039.27 177.719Z" fill="#E5AA20"/>
<path d="M207.174 191.463C207.579 191.059 207.983 190.52 208.118 189.981L210.006 194.697C215.803 209.922 232.925 217.468 248.159 211.674C254.63 209.249 259.753 204.667 262.989 199.143L258.405 187.286C256.518 187.96 254.495 188.364 252.608 188.364C250.316 188.364 248.024 187.825 245.867 186.882C245.058 186.478 244.654 185.535 245.058 184.726C245.463 183.918 246.406 183.514 247.215 183.918C250.451 185.4 253.956 185.4 257.326 184.187L254.226 176.103L264.607 172.061L259.618 159.126C253.821 143.901 236.699 136.355 221.465 142.149C207.579 147.404 200.029 162.09 203.265 176.238C203.534 177.45 202.321 178.394 201.242 177.855C199.22 176.911 197.198 176.911 195.85 177.989C193.558 179.876 194.367 184.322 197.468 188.095C200.703 191.867 205.017 193.349 207.174 191.463Z" fill="#1E2B3C"/>
<path d="M247.219 183.92C246.41 183.516 245.332 183.92 245.062 184.729C244.792 185.537 245.062 186.615 245.871 186.885C248.028 187.828 250.32 188.367 252.612 188.367C254.634 188.367 256.522 187.962 258.409 187.289L257.196 184.19C253.96 185.402 250.32 185.402 247.219 183.92Z" fill="#E5AA20"/>
<path d="M207.444 826.62C206.366 820.961 204.478 815.167 200.703 810.451C198.816 808.161 196.389 806.139 193.693 804.792C192.345 804.118 190.862 803.579 189.514 803.175C188.031 802.771 186.683 802.502 185.334 802.097C179.942 800.615 174.953 797.921 171.044 794.148C169.83 792.935 168.752 791.723 167.808 790.375C165.516 787.276 163.764 783.908 162.55 780.135C160.798 774.88 159.989 769.221 159.719 763.562C159.18 752.244 160.797 740.792 162.955 729.608C163.494 726.913 164.438 724.219 165.516 721.659C166.595 719.099 167.808 716.404 169.021 713.844C170.504 710.745 172.122 707.646 173.875 704.547C174.953 702.526 176.032 700.505 177.11 698.618C182.773 688.513 188.57 678.543 194.232 668.572C205.827 648.496 217.016 628.285 227.532 607.67C248.564 566.44 266.494 523.459 278.898 478.861C279.706 476.031 280.381 473.336 281.19 470.507C281.998 467.677 282.673 464.848 283.212 462.018C284.425 456.359 285.504 450.566 286.312 444.907C288.065 433.454 289.279 421.866 289.953 410.279C290.222 404.485 290.222 398.691 290.357 392.898L290.222 384.274C290.222 381.445 290.087 378.481 289.953 375.651C289.683 364.064 288.604 352.611 287.391 341.023C288.604 364.064 288.739 387.239 286.582 410.144C285.773 421.597 284.695 433.05 282.942 444.502C282.133 450.161 281.055 455.82 279.841 461.479C279.302 464.309 278.628 467.004 277.819 469.833C277.145 472.663 276.336 475.357 275.527 478.187C263.124 522.516 245.328 565.362 224.296 606.323C213.781 626.938 202.591 647.014 191.131 667.09C185.334 677.06 179.537 687.031 173.875 697.136C171.044 702.256 168.347 707.242 165.786 712.496C164.572 715.057 163.224 717.751 162.146 720.446C161.067 723.141 159.989 725.97 159.314 728.935C157.023 740.387 155.405 751.975 155.944 763.832C156.214 769.76 157.157 775.554 159.045 781.348C160.932 787.007 163.898 792.531 168.482 796.708C172.931 800.885 178.728 803.445 184.525 804.792C186.008 805.196 187.491 805.331 188.705 805.601C190.053 805.87 191.401 806.409 192.614 806.948C195.176 808.026 197.333 809.777 199.22 811.799C202.995 815.975 205.152 821.365 206.366 826.889C207.579 832.413 208.118 838.207 207.849 844.001C208.658 838.207 208.523 832.279 207.444 826.62Z" fill="#EDCFC5"/>
<path d="M483.42 182.841C475.466 193.216 467.242 203.322 458.479 213.157C449.716 222.859 440.683 232.29 430.841 240.913L429.089 242.53L427.201 244.147L423.426 247.246C422.213 248.324 420.999 249.402 419.651 250.345L415.742 253.175C410.619 257.217 405.091 260.585 399.429 263.684C393.766 266.783 387.834 269.478 381.768 272.038C375.836 274.598 369.634 276.889 363.567 279.044C351.299 283.356 338.761 287.129 326.088 290.497C313.415 293.866 300.742 296.83 287.935 299.525C275.262 302.758 262.454 305.588 249.512 308.283C256.118 307.609 262.589 306.8 269.06 305.857C275.531 304.914 282.003 303.971 288.609 302.758C296.293 301.141 303.978 299.39 311.663 297.503C316.786 296.291 321.909 294.943 327.032 293.596C339.705 290.228 352.377 286.455 364.781 282.009C367.477 281.065 370.308 279.988 373.005 279.044C376.51 277.697 379.88 276.35 383.251 274.868C389.317 272.307 395.384 269.478 401.181 266.379C406.979 263.28 412.776 259.777 417.899 255.735L421.943 252.77C423.292 251.827 424.505 250.749 425.853 249.671L429.628 246.572L431.515 244.956L433.403 243.339C443.379 234.581 452.412 225.149 461.31 215.313C470.073 205.477 478.432 195.372 486.386 184.862L492.048 176.778C493.801 174.083 495.688 171.389 497.441 168.559C501.081 163.035 504.586 157.511 507.822 151.852C499.868 162.496 491.779 172.871 483.42 182.841Z" fill="#EDCFC5"/>
<path d="M1025.25 399.227C1030.1 395.589 1034.68 391.547 1039 387.235C1043.31 382.924 1047.36 378.477 1051.13 373.762C1055.04 369.18 1058.68 364.33 1062.19 359.345C1069.2 349.509 1075.67 339.403 1081.6 328.894C1084.43 323.504 1086.99 318.115 1089.55 312.725C1092.12 307.336 1094.54 301.811 1096.7 296.152C1091.04 306.797 1085.11 317.171 1078.63 327.142C1072.7 337.517 1066.37 347.622 1059.36 357.324C1055.85 362.174 1052.34 366.89 1048.44 371.471C1044.66 376.052 1040.62 380.498 1036.44 384.675C1032.26 388.852 1027.81 392.76 1023.09 396.263C1018.37 399.766 1013.38 402.865 1007.99 405.156C997.339 409.871 985.206 410.006 973.746 407.177C962.287 404.347 951.501 399.227 941.525 392.894C931.548 386.562 922.111 379.151 913.348 371.067C904.18 363.387 895.552 355.168 887.328 346.41C890.833 351.26 894.743 355.841 898.653 360.422C902.563 365.004 906.742 369.315 911.056 373.627C919.954 381.711 929.526 389.256 939.772 395.724C950.018 402.191 961.073 407.581 972.937 410.545C978.869 412.027 985.071 412.701 991.273 412.431C997.474 412.162 1003.68 410.68 1009.34 408.389C1014.33 406.233 1018.91 403.539 1023.22 400.44C1024.03 400.035 1024.57 399.631 1025.25 399.227Z" fill="#EDCFC5"/>
<path d="M902.703 297.368C909.444 301.545 916.32 305.587 923.195 309.764L944.496 320.678L987.099 342.505L988.582 343.314L989.391 341.831L1011.77 297.503L1022.96 275.405C1026.33 267.86 1029.57 260.18 1032.67 252.5C1028.35 259.506 1024.04 266.647 1019.99 273.923L1008.8 296.155L987.099 339.002L945.98 317.983L924.678 307.069C921.443 305.587 918.072 304.239 914.837 302.757C911.197 301.14 907.556 299.658 903.782 298.176C903.512 297.772 903.108 297.503 902.703 297.368Z" fill="#EDCFC5"/>
<path d="M862.931 280.928C857.673 278.368 852.01 276.481 846.078 275.538C844.595 275.269 843.112 275.134 841.629 274.999C840.146 274.864 838.663 274.864 837.315 274.864C834.484 274.73 831.653 274.595 828.822 274.325C823.159 273.921 817.497 273.248 811.7 272.709C806.038 272.17 800.24 271.496 794.308 271.631C792.825 271.631 791.342 271.765 789.725 272.035C788.916 272.17 788.107 272.439 787.298 272.843C786.624 273.248 785.95 273.652 785.276 274.191C784.602 274.73 783.928 275.403 783.388 276.347C782.849 277.29 782.579 278.637 782.984 279.715C783.253 280.793 783.927 281.601 784.467 282.275C785.141 282.949 785.68 283.353 786.354 283.892C789.051 285.643 791.882 286.587 794.578 287.53C795.926 287.934 797.274 288.473 798.623 288.877C799.971 289.416 801.184 289.955 802.532 290.359C807.925 292.111 813.318 294.536 818.98 295.749C813.722 293.324 809.004 290.09 803.88 287.395C803.206 286.991 802.532 286.721 801.858 286.452L799.836 285.643C798.488 285.105 797.14 284.7 795.657 284.161C792.96 283.218 790.399 282.275 788.242 280.793C787.163 280.119 786.219 279.176 786.085 278.637C785.95 278.368 786.085 278.233 786.219 277.829C786.354 277.559 786.759 277.155 787.163 276.751C787.568 276.347 788.107 276.077 788.781 275.808C789.185 275.538 789.725 275.403 790.399 275.269C791.612 274.999 792.96 274.999 794.443 274.864C799.971 274.864 805.768 275.403 811.43 275.942C817.093 276.481 822.89 277.02 828.552 277.559C831.383 277.829 834.349 277.963 837.181 278.098C838.664 278.098 840.012 278.233 841.495 278.233C842.843 278.368 844.191 278.502 845.674 278.637C851.201 279.446 856.459 281.197 861.448 283.757C866.706 285.778 871.694 288.473 876.412 291.841C872.637 287.53 868.054 283.892 862.931 280.928Z" fill="#EDCFC5"/>
</svg>
