<svg width="831" height="774" viewBox="0 0 831 774" fill="none" xmlns="http://www.w3.org/2000/svg">
<path d="M701.6 773.9H701.1L684.6 755.8L701.6 773.9Z" fill="white"/>
<path d="M350.7 556.5C351.5 558.9 351.9 561.5 352 564.1L352.1 565.1V566.1C352.1 566.7 352.1 567.4 352.1 568C352 569.3 351.9 570.6 351.7 571.9L351.4 573.8C351.3 574.4 351.1 575.1 351 575.7C350.9 576.1 350.8 576.4 350.7 576.8L349 552.3L349.3 552.9C349.8 554.1 350.3 555.2 350.7 556.5Z" fill="#1E98F5"/>
<path d="M503.5 574.7C489.4 567.5 471.2 557.9 458.5 549.5L503.5 574.7Z" fill="#F05F63"/>
<path d="M252.9 358.7C252.7 358.4 252.4 358.1 252.2 357.8C252 357.5 251.8 357.3 251.6 357C252.1 357.6 252.4 357.9 252.4 357.9C252.4 357.9 252.6 358.1 252.9 358.7Z" fill="#E5AA20"/>
<path d="M638.2 404C636.9 401.3 635.7 398.5 634.4 395.8L630.4 387.7L598.8 322.9L598.7 322.8L598.6 322.7C589.7 311.4 581.4 299.5 573.6 287.3C569.8 281.2 566 275 562.6 268.7C560.8 265.6 559.2 262.3 557.5 259.1L555.2 254.2L554 251.8C553.6 251 553.3 250.2 552.9 249.3L550.7 244.3L548.8 239.3C548.5 238.5 548.1 237.6 547.9 236.8L547.1 234.2L546.3 231.6L545.9 230.3L545.6 229C543.7 222.1 542.5 215 542.3 207.9C542 200.8 542.9 193.6 544.7 186.7C545.6 183.3 546.8 179.9 548.2 176.6C548.9 174.9 549.6 173.3 550.3 171.6C551 169.9 551.7 168.1 552 166.1C552.3 164.2 552.4 162.2 551.9 160.2C551.4 158.2 550.2 156.3 548.4 155.1C546.7 153.9 544.6 153.3 542.7 153.2C540.7 153 538.8 153.3 536.9 153.7C535 154.1 533.3 154.7 531.5 155.4C529.8 156.1 528.1 156.9 526.5 157.6C523.2 159.1 519.9 160.7 516.7 162.3C510.2 165.6 503.8 169.3 498 173.8C495.1 176 492.3 178.5 489.8 181.3C488.6 182.7 487.4 184.1 486.3 185.7C485.2 187.2 484.3 188.9 483.6 190.6C482.8 192.3 482.3 194.2 481.9 196C481.5 197.9 481.5 199.7 481.3 201.5C481.1 205.2 481 208.8 481 212.5C481.1 217.8 481.6 223.2 482.2 228.4C478.5 226.4 476.3 225.4 476.3 225.4V225.6C471.1 223.1 465.5 222.4 459.8 222.1C459 222.1 458.2 222 457.5 222C453.6 221.7 449.9 221.8 446.3 222.3C406.7 225.7 408 255.2 411.9 291C412.6 297.1 413.4 303.4 414.2 309.6C399.6 308.9 377.4 308.1 361.6 308.8C332 297.5 292 284.9 279 290C265.4 295.4 252.5 303.3 255.2 310.9C251.1 310.2 246.8 310.2 242.7 311.1C239.9 311.7 237.1 312.6 234.5 314L232.6 315.1C231.9 315.6 231.2 316.2 230.8 317C229.9 318.6 229.8 320.3 229.9 321.8C230.1 324.9 231.1 327.6 232.2 330.3C233.3 332.9 234.6 335.5 236 337.9C238.8 342.8 241.9 347.5 245.2 352.1C246.8 354.3 248.4 356.5 250 358.6C244.3 355.3 239.4 352.5 235.8 350.8C221.1 344 205.1 335.3 186.1 343C167.1 350.7 161 362.4 184.3 374.5C205.8 385.7 253 423.3 289.3 439.2C287.7 462 294.7 492.3 295.9 535.2C296.2 547.5 292.6 571.8 265.4 581.9C246.7 588.9 258.9 623.4 258.9 623.4L348 584.5C346.8 587.6 345.4 590.7 343.9 593.6C342.7 595.9 341.3 598.2 339.9 600.5L338.8 602.2C338.4 602.8 338 603.4 337.7 604C337.4 604.6 337 605.2 336.8 605.9L336.4 606.9L336.1 607.9C334.4 613.3 335 619.1 336.7 624.3C338.4 629.5 341.1 634.2 344.5 638.3L344.6 638.4L430.2 582L377.7 474.3C377.7 474.3 377.7 474.3 377.8 474.3C378.6 475.2 379.3 476.1 380.1 476.9L381.5 478.5L382.9 480L385.8 483.1C387.8 485.1 389.7 487.1 391.7 489.1C395.7 493.1 399.7 497 403.8 500.8C420.1 516.2 436.7 531.2 453.5 546L453.6 546.1L453.7 546.2L458.7 549C471.4 557.4 489.6 567.1 503.7 574.2L524 585.6L540.1 602.9C484 645.9 413.8 671.4 337.7 671.4C153.7 671.4 4.50018 522.2 4.50018 338.2C4.50018 154.2 153.5 5.5 337.5 5.5C521.5 5.5 670.7 154.7 670.7 338.7C670.7 374.1 665.2 408.2 654.9 440.2C651.9 433.6 648.8 427 645.7 420.3L638.2 404ZM441.9 171.1C440.7 171.1 439.6 172.1 438.9 173.6C438.5 174.4 437.4 174.4 437 173.6C432 164.1 420.6 159.6 410.2 163.3C398.8 167.4 393 180 397.1 191.4L400.6 201.1L408.4 198.3L410.6 204.3L411.5 206.6L414.7 215.5C419.2 217 424.3 217.1 429.1 215.3C440.5 211.2 446.3 198.6 442.2 187.2L440.9 183.6C441.3 183.8 441.7 184 442.2 183.9C444.4 183.9 446.1 180.9 446 177.3C445.8 173.9 444 171 441.9 171.1Z" fill="#1E98F5"/>
<path d="M298.8 342.9C294.8 339.6 290.7 336.4 286.7 333.1C283.9 330.8 281.1 328.4 278.3 326C283.9 328.8 290.5 332.2 297.4 335.8L298.8 342.9Z" fill="#1E98F5"/>
<path d="M684.6 755.8L677.2 747.7L652.2 720.2C648 715.6 643.8 711.1 639.6 706.6L626.9 693L525.5 584.2L525.4 584.1L525.2 584L454.9 544.6C438.1 529.8 421.5 514.9 405.3 499.5C401.3 495.6 397.2 491.8 393.3 487.8C391.3 485.8 389.4 483.8 387.4 481.8L384.6 478.7L383.2 477.2L381.8 475.6C381.5 475.3 381.3 475 381 474.7C399.3 475 485.1 473.4 513.1 423.4C515.5 419.2 517 413.7 517.8 407.3C520.2 399 520.6 389.9 520.5 380.1C525.7 380.3 530.9 380.2 536 379.3C564.5 375.3 573.6 349.3 555.9 309.3C535.5 263.1 500.1 238.8 484.3 229.8C483.8 224.1 483.5 218.3 483.5 212.6C483.4 209 483.5 205.4 483.7 201.8C483.9 200 484 198.2 484.3 196.5C484.6 194.8 485.1 193.2 485.8 191.6C486.5 190 487.3 188.5 488.3 187C489.3 185.5 490.4 184.2 491.5 182.9C493.9 180.3 496.5 177.9 499.3 175.7C505 171.4 511.2 167.8 517.6 164.5C520.8 162.9 524.1 161.3 527.3 159.8C528.9 159.1 530.6 158.3 532.2 157.6C533.8 156.9 535.5 156.4 537.2 156C538.9 155.6 540.6 155.4 542.2 155.6C543.8 155.7 545.4 156.2 546.7 157C548 157.9 548.8 159.2 549.2 160.7C549.6 162.2 549.6 163.9 549.3 165.5C549 167.2 548.5 168.8 547.8 170.4C547.1 172.1 546.4 173.7 545.7 175.4C544.3 178.8 543.1 182.3 542.1 185.8C540.2 192.9 539.3 200.3 539.6 207.7C539.9 215.1 541 222.4 543 229.4L543.3 230.7L543.7 232L544.5 234.6L545.3 237.2C545.6 238.1 545.9 238.9 546.3 239.8L548.3 244.9L550.5 249.9C550.9 250.7 551.2 251.6 551.6 252.4L552.8 254.9L555.2 259.8C556.9 263 558.5 266.3 560.3 269.4C563.8 275.8 567.6 282 571.4 288.2C579.2 300.4 587.5 312.3 596.4 323.7L627.9 388.4L631.8 396.5C633.1 399.2 634.5 401.9 635.9 404.5L644.1 420.6C649.6 431.3 655 442 660.6 452.7L830.7 557.7V773.5H701.3L684.6 755.8Z" fill="#F05F63"/>
<path d="M385.9 366.8C389.6 364.4 393.2 361.8 396.5 359.4C396.2 361.2 395.9 363 395.8 364.8C395.5 367.4 395.4 370 395.4 372.7L386.4 370.1L385.9 366.8Z" fill="#F05F63"/>
<path d="M186.1 343.4C205.2 335.7 221.1 344.4 235.8 351.2C239.4 352.9 244.2 355.6 250 359C250.1 359.1 250.1 359.2 250.2 359.3C251.9 361.5 253.7 363.7 255.5 365.9C262.6 374.6 269.9 383.1 277.3 391.5C281 395.7 284.7 399.9 288.5 404L291.5 407C292.5 408 293.6 408.9 294.6 409.9C295.7 410.9 296.8 411.9 298 412.9C292.5 420.6 290 429.4 289.3 439.6C253 423.7 205.8 386.1 184.3 374.9C161 362.8 167.1 351.1 186.1 343.4Z" fill="#F05F63"/>
<path d="M414.1 367.2C414.4 365.8 414.7 364.4 415.2 363.1C415.6 362 416 360.9 416.6 360C416 362.7 415.2 365.1 414.1 367.2Z" fill="#F05F63"/>
<path d="M294.5 309.7C293.6 310.5 293.1 311.6 293.4 312.9L297.5 335.8C290.5 332.2 284 328.9 278.4 326C277 324.7 275.5 323.5 274.1 322.2C273.1 321.3 272.1 320.3 271.1 319.3C270.6 318.8 270.1 318.3 269.5 317.8C269.2 317.6 269 317.3 268.7 317.1L267.8 316.4C265.4 314.6 262.8 313.3 260 312.4C258.5 311.9 256.9 311.5 255.3 311.3C252.6 303.7 265.5 295.8 279.1 290.4C292.1 285.3 332.1 297.9 361.7 309.2C355 309.5 349.5 310.1 346.1 311.2C342.3 312.3 338.6 313.8 335.2 315.5L299.2 307.8C297.7 307.4 295.7 308.3 294.5 309.7Z" fill="#F05F63"/>
<path d="M482.4 228.601C481.8 223.301 481.3 218 481.2 212.7C481.1 209 481.3 205.401 481.5 201.701C481.7 199.901 481.8 198.101 482.1 196.201C482.5 194.301 483 192.501 483.8 190.801C484.6 189.101 485.5 187.4 486.5 185.9C487.5 184.3 488.7 182.9 490 181.5C492.5 178.7 495.3 176.3 498.2 174C504 169.5 510.4 165.9 516.9 162.5C520.1 160.8 523.4 159.301 526.7 157.801C528.4 157.001 530 156.301 531.7 155.601C533.4 154.901 535.2 154.3 537.1 153.9C539 153.5 540.9 153.3 542.9 153.4C544.9 153.5 546.9 154.101 548.6 155.301C550.4 156.501 551.6 158.4 552.1 160.4C552.6 162.4 552.6 164.401 552.2 166.301C551.9 168.201 551.2 170.001 550.5 171.801C549.8 173.501 549.1 175.101 548.4 176.801C547 180.101 545.9 183.5 544.9 186.9C543.1 193.8 542.2 200.901 542.5 208.101C542.7 215.201 543.9 222.3 545.8 229.2L546.1 230.5L546.5 231.801L547.3 234.401L548.1 237C548.4 237.9 548.7 238.7 549 239.5L550.9 244.5L553.1 249.5C553.5 250.3 553.8 251.2 554.2 252L555.4 254.401L557.7 259.301C559.4 262.501 561 265.701 562.8 268.901C566.2 275.201 570 281.4 573.8 287.5C581.5 299.7 589.9 311.601 598.8 322.901L598.9 323L599 323.101L630.6 387.901L634.6 396C635.9 398.7 637.1 401.4 638.4 404.2L646 420.601C649.1 427.201 652.1 433.8 655.2 440.5C657.2 444.8 659.2 449.101 661.1 453.401C655.6 442.701 650.1 432.001 644.6 421.301L636.4 405.2C635 402.5 633.6 399.9 632.3 397.2L628.4 389.101L596.9 324.401C587.9 313.001 579.6 301.101 571.9 288.901C568 282.701 564.3 276.501 560.8 270.101C559 266.901 557.4 263.7 555.7 260.5L553.3 255.601L552.1 253.101C551.7 252.301 551.4 251.401 551 250.601L548.8 245.601L546.8 240.5C546.5 239.6 546.1 238.801 545.8 237.901L545 235.301L544.2 232.7L543.8 231.401L543.5 230.101C541.5 223.001 540.3 215.7 540.1 208.4C539.8 201 540.7 193.6 542.6 186.5C543.6 182.9 544.8 179.501 546.2 176.101C546.9 174.401 547.6 172.701 548.3 171.101C549 169.501 549.6 167.901 549.8 166.201C550.1 164.501 550.1 162.9 549.7 161.4C549.3 159.9 548.4 158.601 547.2 157.701C546 156.801 544.4 156.401 542.7 156.301C541.1 156.201 539.3 156.401 537.7 156.701C536 157.101 534.4 157.601 532.7 158.301C531.1 159.001 529.4 159.8 527.8 160.5C524.5 162 521.3 163.601 518.1 165.201C511.7 168.501 505.4 172.1 499.8 176.4C497 178.6 494.3 180.901 492 183.601C490.8 184.901 489.7 186.301 488.8 187.701C487.8 189.101 487 190.701 486.3 192.301C485.6 193.901 485.1 195.501 484.8 197.201C484.5 198.801 484.4 200.7 484.2 202.5C484 206.1 483.9 209.701 484 213.301C484.1 219.001 484.3 224.8 484.8 230.5C483.7 229.4 483 229.001 482.4 228.601Z" fill="#EDCFC5"/>
<path d="M313.9 385.9L306.1 383.7L313.9 385.9Z" fill="#F05F63"/>
<path d="M293.2 405.2L290.3 402.3C286.5 398.2 282.8 394 279.1 389.8C271.7 381.4 264.5 372.9 257.4 364.2C255.9 362.3 254.4 360.5 252.9 358.6C252.5 358.1 252.3 357.8 252.3 357.8C252.3 357.8 252 357.5 251.5 356.9C250 355 248.5 353 247.1 351C243.9 346.5 240.8 341.8 238.1 337C236.7 334.6 235.5 332.1 234.4 329.6C233.4 327.1 232.4 324.5 232.3 322C232.2 320.7 232.4 319.5 232.9 318.6C233.2 318.2 233.5 317.8 234 317.5L235.7 316.5C238 315.2 240.6 314.4 243.2 313.8C248.5 312.7 254 313.1 259.1 314.7C261.7 315.5 264.1 316.8 266.2 318.3L267 318.9C267.3 319.1 267.5 319.3 267.7 319.6C268.2 320.1 268.7 320.5 269.2 321C270.2 322 271.2 323 272.3 324C276.4 327.8 280.7 331.4 285.1 335C289.4 338.6 293.8 342.1 298.1 345.6L299.4 346.7L306 383.7C306.5 387 308.9 389.7 312.1 390.6C315 391.4 318.2 392.3 321.5 393.3C316.4 396.1 311.3 399.6 306.3 403.9C303.7 406.1 301.4 408.4 299.5 410.8C298.4 409.9 297.3 409 296.3 408C295.3 407.1 294.2 406.2 293.2 405.2Z" fill="#F05F63"/>
<path d="M650.4 721.9C646.1 717.4 641.9 712.9 637.7 708.3L625 694.7L539.9 603.3L523.8 586L503.5 574.6L458.5 549.4L453.5 546.6L453.4 546.5L453.3 546.4C436.5 531.6 419.8 516.6 403.6 501.2C399.5 497.3 395.5 493.4 391.5 489.5C389.5 487.5 387.6 485.5 385.6 483.5L382.7 480.4L381.3 478.9L379.9 477.3C379.1 476.4 378.4 475.5 377.6 474.7C377.8 474.7 379 474.8 381 474.8C381.3 475.1 381.5 475.4 381.8 475.7L383.2 477.3L384.6 478.8L387.4 481.9C389.4 483.9 391.3 485.9 393.3 487.9C397.3 491.8 401.3 495.7 405.3 499.6C421.5 515 438.1 529.9 454.9 544.7L525.2 584.1L525.4 584.2L525.5 584.3L626.9 693.1L639.6 706.7C643.8 711.2 648.1 715.8 652.2 720.3L677.2 747.8L684.6 755.9L701.1 774H699.9L676 748.9L650.4 721.9Z" fill="#EDCFC5"/>
<path d="M291.5 407L288.5 404C284.7 399.9 281 395.7 277.3 391.5C269.9 383.1 262.7 374.5 255.5 365.9C253.7 363.7 251.9 361.6 250.2 359.3C250.1 359.2 250.1 359.1 250 359C248.3 356.9 246.7 354.7 245.2 352.5C241.9 347.9 238.8 343.2 236 338.3C234.6 335.8 233.3 333.3 232.2 330.7C231.1 328.1 230.1 325.3 229.9 322.2C229.8 320.7 229.9 319 230.8 317.4C231.2 316.6 231.9 316 232.6 315.5L234.5 314.4C237.1 313 239.9 312 242.7 311.5C246.8 310.6 251.1 310.6 255.2 311.3C256.8 311.6 258.4 311.9 259.9 312.4C262.7 313.3 265.3 314.7 267.7 316.4L268.6 317.1C268.9 317.3 269.1 317.6 269.4 317.8C269.9 318.3 270.5 318.8 271 319.3C272 320.3 273 321.2 274 322.2C275.4 323.5 276.8 324.8 278.3 326C281 328.4 283.8 330.8 286.7 333.1C290.7 336.4 294.7 339.7 298.8 342.9L299.5 346.7L298.2 345.6C293.8 342.1 289.5 338.6 285.2 335C280.9 331.4 276.6 327.8 272.4 324C271.4 323 270.3 322.1 269.3 321C268.8 320.5 268.3 320.1 267.8 319.6C267.6 319.4 267.3 319.1 267.1 318.9L266.3 318.3C264.2 316.7 261.8 315.5 259.2 314.7C254.1 313.1 248.5 312.7 243.3 313.8C240.7 314.3 238.1 315.2 235.8 316.5L234.1 317.5C233.6 317.8 233.3 318.2 233 318.6C232.5 319.5 232.3 320.7 232.4 322C232.6 324.5 233.5 327.1 234.5 329.6C235.6 332.1 236.8 334.6 238.2 337C240.9 341.8 244 346.5 247.2 351C248.6 353 250.1 355 251.6 356.9C251.8 357.2 252 357.4 252.2 357.7C252.4 358 252.7 358.3 252.9 358.6C254.4 360.5 255.9 362.3 257.4 364.2C264.5 372.8 271.7 381.4 279.1 389.8C282.8 394 286.5 398.2 290.3 402.3L293.2 405.2C294.2 406.2 295.2 407.1 296.2 408C297.2 409 298.3 409.9 299.4 410.8C298.9 411.5 298.4 412.1 297.9 412.8C296.8 411.8 295.6 410.9 294.5 409.8C293.6 409 292.5 408.1 291.5 407Z" fill="#EDCFC5"/>
<path d="M384.9 359.8C386.5 358.2 387.7 356.3 388.7 354.3C390 351.7 391 348.9 392 346.1C392.5 344.7 392.9 343.3 393.4 342C393.7 341.3 393.9 340.699 394.2 340.199C394.3 339.899 394.5 339.7 394.6 339.6H394.7C396.1 339.8 397.6 339.999 398.9 340.199C399.6 340.299 400.3 340.4 400.9 340.6C401.5 340.7 402.2 340.999 402.4 341.199C402.4 341.199 402.3 341.4 402.3 341.5C402.3 341.6 402.1 341.7 402.1 341.8L401.8 342.199C401.5 342.599 401.3 342.9 401.1 343.3C400.3 344.7 399.8 346.1 399.3 347.5C398.3 350.3 397.6 353.2 397 356.1C396.8 357.2 396.6 358.3 396.4 359.4C393.1 361.8 389.5 364.3 385.8 366.8L384.9 359.8Z" fill="#1E2B3C"/>
<path d="M412.1 377.6C412.2 377 412.4 376.3 412.5 375.7C413 372.8 413.5 370 414.1 367.2C415.2 365.1 416 362.7 416.6 360C416.7 359.9 416.8 359.7 416.9 359.6C417.7 358.6 418.6 357.7 419.8 357.1C420.4 356.8 420.9 356.6 421.6 356.4C421.8 356.4 421.9 356.3 422.1 356.3C421.8 360.2 421.6 364 421.4 367.9C421.3 370.1 421.3 372.3 421.3 374.4C421.3 376.3 421.4 378.3 421.6 380.3L412.1 377.6Z" fill="#1E2B3C"/>
<path d="M377.7 474.699L430.2 582.4L344.6 638.8C343.1 636.6 341.8 634.3 340.7 631.8C339.6 629.4 338.7 626.9 338 624.3C336.8 619.2 336.7 613.8 338.5 609.1C338.9 607.9 339.4 606.7 340 605.6C340.3 605 340.6 604.5 340.9 603.9L342 602.199C343.5 599.899 344.8 597.599 346.1 595.199C348.6 590.399 350.8 585.4 352.3 580.1C352.7 578.8 353 577.5 353.3 576.1C353.4 575.4 353.6 574.8 353.7 574.1L354 572.1C354.2 570.8 354.3 569.4 354.4 568C354.4 567.3 354.4 566.6 354.4 565.9V564.9L354.3 563.9C354.2 561.1 353.7 558.399 352.9 555.699C352.5 554.399 351.9 553.1 351.3 551.8L349.5 548.199C344.6 538.699 339.8 529.1 335.3 519.4C330.8 509.7 326.5 499.9 322.9 489.9C319.4 479.9 316.4 469.6 315.7 459.1C315.4 453.9 315.6 448.6 316.7 443.5C317.3 441 318.1 438.5 319.1 436.1C320.1 433.7 321.4 431.399 322.7 429.199C325.2 424.699 329.1 420.9 333.1 417.6C337.2 414.2 341.6 411.2 346.2 408.3C341.4 410.7 336.7 413.4 332.3 416.5C327.9 419.6 323.7 423.2 320.5 427.8C317.5 432.4 315.4 437.6 314.2 442.9C313 448.3 312.8 453.799 313.1 459.199C313.9 470.099 316.9 480.599 320.5 490.699C324.1 500.799 328.5 510.7 333 520.4C337.6 530.1 342.4 539.699 347.3 549.199L348.8 552.1L350.5 576.6C350.3 577.5 350 578.4 349.8 579.3C349.3 581.2 348.7 583 348 584.8L258.9 623.699C258.9 623.699 246.7 589.099 265.4 582.199C292.5 572.099 296.2 547.8 295.9 535.5C294.7 492.6 287.7 462.3 289.3 439.5C290 429.2 292.5 420.5 298 412.8C298.5 412.1 299 411.5 299.5 410.8C301.4 408.4 303.7 406.1 306.3 403.9C311.4 399.6 316.5 396.2 321.5 393.3C350.7 401.7 390.7 413.8 391.5 412.4C392.3 412.3 393 412.099 393.7 411.699L430.4 393.3C431.1 393.4 431.9 393.399 432.6 393.199C434 392.899 435.1 392 435.9 391C436.1 390.8 436.2 390.6 436.4 390.3L439.1 388.9L439 385.4H439.1L438.3 385.199C438.3 384.999 438.4 384.7 438.4 384.5L442 366.6L467.3 366.1C472.7 368.5 478.1 370.6 483.6 372.5C485 373 486.4 373.5 487.8 373.9C489.2 374.3 490.6 374.799 492.1 375.199C493.5 375.599 494.9 376.1 496.4 376.5C497.8 376.9 499.3 377.2 500.8 377.5C506.6 378.7 512.5 379.7 518.5 380.1C519.2 380.2 520 380.199 520.7 380.199C520.9 389.999 520.4 399.1 518 407.4C517.1 413.7 515.6 419.3 513.3 423.5C485.2 473.5 399.4 475.1 381.2 474.8C379.1 474.7 378 474.699 377.7 474.699Z" fill="#1E2B3C"/>
<path d="M344.6 638.8C344.6 638.8 344.6 638.7 344.6 638.8C341.1 634.6 338.4 629.9 336.7 624.7C335 619.5 334.5 613.8 336.1 608.3L336.4 607.3L336.8 606.3C337.1 605.6 337.4 605 337.7 604.4C338 603.8 338.4 603.2 338.8 602.6L339.9 600.9C341.3 598.7 342.6 596.4 343.9 594C345.5 591 346.9 588 348 584.9C348.7 583.1 349.3 581.3 349.8 579.4C350 578.5 350.3 577.6 350.5 576.7C350.6 576.3 350.7 576 350.8 575.6C350.9 575 351.1 574.3 351.2 573.7L351.5 571.8C351.7 570.5 351.8 569.2 351.9 567.9C351.9 567.3 351.9 566.6 351.9 566V565L351.8 564C351.7 561.4 351.3 558.9 350.5 556.4C350.1 555.2 349.6 554 349.1 552.9L348.8 552.3L347.3 549.4C342.4 539.9 337.6 530.3 333 520.6C328.5 510.9 324.1 501 320.5 490.9C316.9 480.8 313.9 470.3 313.1 459.4C312.8 454 313 448.4 314.2 443.1C315.4 437.7 317.5 432.6 320.5 428C323.6 423.4 327.9 419.8 332.3 416.7C336.7 413.6 341.4 410.9 346.2 408.5C341.7 411.4 337.2 414.4 333.1 417.8C329 421.2 325.2 424.9 322.7 429.4C321.3 431.6 320.1 433.9 319.1 436.3C318.1 438.7 317.3 441.2 316.7 443.7C315.6 448.8 315.3 454.1 315.7 459.3C316.5 469.8 319.4 480.1 322.9 490.1C326.5 500.1 330.8 509.9 335.3 519.6C339.9 529.3 344.6 538.8 349.5 548.4L351.3 552C351.9 553.3 352.5 554.6 352.9 555.9C353.7 558.6 354.2 561.3 354.3 564.1L354.4 565.1V566.1C354.4 566.8 354.4 567.5 354.4 568.2C354.3 569.6 354.2 570.9 354 572.3L353.7 574.3C353.6 575 353.4 575.6 353.3 576.3C353 577.6 352.7 579 352.3 580.3C350.8 585.5 348.7 590.6 346.1 595.4C344.8 597.8 343.5 600.2 342 602.4L340.9 604.1C340.6 604.6 340.2 605.2 340 605.8C339.4 606.9 338.9 608.1 338.5 609.3C336.7 614.1 336.7 619.4 338 624.5C338.6 627.1 339.5 629.6 340.7 632C341.8 634.2 343.1 636.6 344.6 638.8Z" fill="#EDCFC5"/>
<path d="M442.1 184.1C441.7 184.1 441.2 184 440.8 183.8L442.1 187.4C446.2 198.8 440.4 211.3 429 215.5C424.2 217.3 419.1 217.2 414.6 215.7L411.4 206.8C414.5 205.6 416.9 203.4 418.3 200.4C418.6 199.8 418.3 199 417.7 198.7C417.1 198.4 416.3 198.7 416 199.3C414.9 201.7 412.9 203.5 410.5 204.4L408.3 198.4L400.5 201.2L397 191.5C392.9 180.1 398.7 167.6 410.1 163.4C420.5 159.6 431.8 164.2 436.9 173.7C437.3 174.5 438.5 174.5 438.8 173.7C439.5 172.2 440.6 171.2 441.8 171.2C444 171.2 445.8 174 445.8 177.6C445.9 181.1 444.2 184 442.1 184.1Z" fill="#1E2B3C"/>
<path d="M416 199.2C416.3 198.6 417 198.3 417.7 198.6C418.3 198.9 418.6 199.6 418.3 200.3C416.9 203.3 414.5 205.5 411.4 206.7L410.5 204.4C412.9 203.4 414.9 201.6 416 199.2Z" fill="#EDCFC5"/>
<path d="M439 385.5L439.1 389L436.4 390.4C437.4 389 437.9 387.5 438.2 385.9L439 385.5Z" fill="white"/>
<path d="M393.7 408.2C392.6 408.8 391.3 409 390.1 408.9C390 408.2 389.9 407.3 389.8 406.3L313.9 385.8L389.8 406.3L378.5 328.5C378.3 327.1 377.2 325.9 375.8 325.6L297.5 308.9C296.4 308.7 295.3 309 294.5 309.7C295.7 308.4 297.7 307.4 299.2 307.7L335.2 315.4L377.5 324.4C378.6 324.6 379.5 325.4 380 326.4C380 326.5 380.1 326.6 380.1 326.7C380.2 326.9 380.2 327.1 380.2 327.3L384.8 358.8L385 359.8L386 366.8L386.5 370.1L395.5 372.7C395.5 373 395.5 373.4 395.5 373.7C395.6 376.7 395.8 379.7 396.6 382.6C397 384.1 397.6 385.6 398.5 387C398.7 387.4 399 387.7 399.3 388C399.6 388.3 399.9 388.6 400.3 388.9C401 389.4 401.9 389.8 402.7 390C403.1 390.1 403.6 390.2 404.1 390.2C404.6 390.2 405.1 390.2 405.5 390C406 389.9 406.4 389.7 406.8 389.4C407.2 389.1 407.6 388.9 407.9 388.5C409.2 387.2 409.8 385.8 410.4 384.3C411.3 382.1 411.8 379.8 412.2 377.5L421.7 380.3C421.7 380.5 421.8 380.8 421.8 381C422.1 383.2 422.7 385.5 423.8 387.6C424.5 389.1 425.5 390.5 426.9 391.6L393.7 408.2Z" fill="#F37C7F"/>
<path d="M438.3 385.2L439.1 385.4H439L438.2 385.8C438.2 385.7 438.2 385.4 438.3 385.2Z" fill="#F37C7F"/>
<path d="M518.6 378.8C512.8 378 507 376.699 501.4 375.199C498.6 374.399 495.7 373.6 492.9 372.8C491.5 372.4 490.1 371.9 488.7 371.5C487.3 371.1 485.9 370.6 484.5 370.1C479 368.2 473.4 366.099 468.1 363.699L467.8 363.6H467.5L441 364.1H440L439.8 365.1L436 384C435.7 386 435.2 388 434 389.3C432.9 390.7 431.2 391.2 429.7 390.4C428.1 389.7 426.9 388.1 426 386.3C425.1 384.5 424.6 382.5 424.3 380.5C424 378.5 423.9 376.399 423.9 374.199C423.9 372.099 423.9 369.9 424 367.8C424.2 363.5 424.4 359.2 424.8 354.9L424.9 353.6L423.7 353.5C422.7 353.5 422 353.6 421.1 353.8C420.3 354 419.5 354.299 418.8 354.699C417.3 355.499 416.1 356.6 415.1 357.9C414.1 359.2 413.5 360.699 413 362.199C412.5 363.599 412.2 365.1 411.9 366.5C411.3 369.4 410.8 372.3 410.3 375.1C409.7 377.9 409.2 380.7 408.2 383.3C407.7 384.6 407.1 385.8 406.3 386.6C406.1 386.8 405.9 386.9 405.7 387.1C405.5 387.2 405.3 387.3 405 387.4C404.5 387.6 404 387.5 403.5 387.4C401.3 386.9 399.9 384.5 399.2 381.9C398.5 379.3 398.2 376.4 398.2 373.6C398.2 370.8 398.3 367.9 398.6 365C398.9 362.2 399.3 359.3 399.9 356.5C400.5 353.7 401.1 350.899 402.1 348.199C402.6 346.899 403.1 345.6 403.7 344.4C403.9 344.1 404 343.8 404.2 343.6L404.3 343.4L404.5 343.1C404.6 342.9 404.8 342.8 404.9 342.6C405 342.4 405.2 342.2 405.3 341.9L405.4 341.5C405.4 341.3 405.5 341.1 405.5 341C405.5 340.7 405.4 340.2 405.2 339.9C405.1 339.7 405 339.6 404.9 339.4C404.8 339.3 404.7 339.2 404.6 339.1C403.7 338.4 402.9 338.2 402.1 338C401.3 337.8 400.6 337.7 399.8 337.6C398.3 337.4 396.8 337.299 395.4 337.199H395.1C394.9 337.199 394.6 337.2 394.4 337.3C394 337.4 393.7 337.7 393.5 337.9C393.1 338.3 392.9 338.7 392.7 339.1C392.3 339.8 392.1 340.6 391.9 341.3C391.5 342.7 391.1 344.1 390.7 345.5C389.9 348.3 389.1 351.099 388 353.699C387.2 355.499 386.3 357.199 385.1 358.699L380.5 327.199C380.5 326.999 380.4 326.8 380.4 326.6C381.9 325.2 383.5 323.9 385.1 322.6C387.4 320.8 389.8 319.1 392.4 317.9C394.9 316.6 397.7 315.9 400.5 315.4C403.3 314.8 406.2 314.4 409 314.3C409.7 314.3 410.4 314.199 411.1 314.199C411.8 314.199 412.6 314.2 413.2 314.3C414.5 314.5 416 314.8 417.4 315.1L426 317L443.2 320.9C466.1 326.2 489 331.7 511.8 337.1L515.8 338L513.1 335L491.1 310.8C489.2 308.8 487.5 306.7 485.6 304.8L479.8 299C475.9 295.1 472.1 291.3 468.2 287.5C471.6 291.8 475.1 295.999 478.6 300.199L483.8 306.5C485.5 308.6 487.5 310.5 489.3 312.6L508.6 333.8C487.1 328.7 465.5 323.5 443.9 318.5L426.7 314.6L418.1 312.699L415.9 312.3C415.2 312.2 414.5 312 413.6 311.9C412.7 311.8 412 311.8 411.3 311.8C410.5 311.8 409.8 311.8 409 311.9C407.5 312 406 312.1 404.5 312.3C403 312.5 401.5 312.7 400 313C397.1 313.7 394.2 314.8 391.6 316.4C389 318 386.7 319.9 384.6 322C383.1 323.4 381.7 324.9 380.4 326.4C380 325.4 379.1 324.6 377.9 324.4L335.6 315.4C339 313.7 342.7 312.3 346.5 311.1C349.9 310.1 355.4 309.5 362.1 309.1C378 308.3 400.1 309.1 414.7 309.9C413.9 303.7 413.1 297.4 412.4 291.3C408.4 255.5 407.2 226 446.8 222.6C450.4 222.1 454.2 222 458 222.3C458.8 222.3 459.5 222.3 460.3 222.4C466.1 222.7 471.7 223.4 476.8 225.9V225.699C476.8 225.699 479 226.599 482.7 228.699C483.4 229.099 484.1 229.5 484.8 229.9C500.6 238.9 536 263.2 556.4 309.4C574.1 349.5 565 375.4 536.5 379.4C530.3 379.9 524.4 379.5 518.6 378.8Z" fill="#1E2B3C"/>
<path d="M384.1 322.1C386.3 320.1 388.5 318.2 391.1 316.5C393.7 314.9 396.6 313.8 399.5 313.1C401 312.8 402.5 312.6 404 312.4C405.5 312.2 407 312.1 408.5 312C409.3 312 410 311.9 410.8 311.9C411.6 311.9 412.3 311.9 413.1 312C414 312.1 414.6 312.3 415.4 312.4L417.6 312.8L426.2 314.699L443.4 318.6C465 323.6 486.5 328.7 508.1 333.9L488.8 312.699C487 310.699 485 308.7 483.3 306.6L478.1 300.3C474.6 296.1 471.1 291.9 467.7 287.6C471.6 291.4 475.5 295.3 479.3 299.1L485.1 304.9C487.1 306.8 488.8 308.9 490.6 310.9L512.6 335.1L515.3 338.1L511.3 337.199C488.4 331.699 465.6 326.3 442.7 321L425.5 317.1L416.9 315.199C415.5 314.899 414 314.6 412.7 314.4C412.1 314.3 411.3 314.3 410.6 314.3C409.9 314.3 409.2 314.3 408.5 314.4C405.6 314.6 402.8 314.9 400 315.5C397.2 316 394.4 316.7 391.9 318C389.4 319.3 386.9 320.899 384.6 322.699C383 323.999 381.4 325.299 379.9 326.699C379.9 326.599 379.8 326.5 379.8 326.4C381.3 324.9 382.6 323.5 384.1 322.1Z" fill="#EDCFC5"/>
<path d="M518.4 380C512.5 379.6 506.6 378.6 500.7 377.4C499.2 377.1 497.8 376.8 496.3 376.4C494.9 376 493.4 375.6 492 375.1C490.6 374.7 489.2 374.2 487.7 373.8C486.3 373.4 484.9 372.9 483.5 372.4C478 370.5 472.5 368.4 467.2 366L441.9 366.5L438.3 384.4C438.3 384.6 438.2 384.9 438.2 385.1C438.2 385.3 438.1 385.6 438.1 385.8C437.8 387.3 437.3 388.9 436.3 390.3C436.1 390.5 436 390.7 435.8 391C435 392 433.9 392.8 432.5 393.2C431.8 393.4 431 393.4 430.3 393.3C429.7 393.2 429 393 428.5 392.8C427.8 392.5 427.2 392.1 426.6 391.6C425.3 390.5 424.3 389 423.5 387.6C422.5 385.5 421.9 383.3 421.5 381C421.5 380.8 421.4 380.5 421.4 380.3C421.1 378.3 421.1 376.3 421.1 374.4C421.1 372.2 421.1 370 421.2 367.9C421.3 364 421.6 360.2 421.9 356.3C421.7 356.3 421.5 356.4 421.4 356.4C420.8 356.5 420.2 356.8 419.6 357.1C418.5 357.7 417.5 358.5 416.7 359.6C416.6 359.7 416.5 359.9 416.4 360C415.8 360.9 415.3 362 415 363.1C414.6 364.4 414.2 365.8 413.9 367.2C413.3 370 412.8 372.8 412.3 375.7C412.2 376.3 412.1 377 411.9 377.6C411.4 379.9 410.9 382.1 410.1 384.4C409.5 385.8 408.8 387.3 407.6 388.6C407.3 388.9 406.9 389.2 406.5 389.5C406.1 389.7 405.7 390 405.2 390.1C404.7 390.3 404.3 390.3 403.8 390.3C403.3 390.3 402.9 390.2 402.4 390.1C401.6 389.9 400.7 389.5 400 389C399.6 388.7 399.3 388.5 399 388.1C398.7 387.8 398.4 387.5 398.2 387.1C397.3 385.7 396.7 384.2 396.3 382.7C395.5 379.7 395.3 376.7 395.2 373.8C395.2 373.5 395.2 373.1 395.2 372.8C395.2 370.2 395.4 367.5 395.6 364.9C395.8 363.1 396 361.3 396.3 359.5C396.5 358.4 396.7 357.3 396.9 356.2C397.5 353.3 398.2 350.4 399.2 347.6C399.7 346.2 400.2 344.8 401 343.4C401.2 343.1 401.4 342.7 401.7 342.3L402 341.9C402.1 341.8 402.2 341.7 402.2 341.6C402.2 341.5 402.4 341.4 402.3 341.3C402.1 341.1 401.4 340.9 400.8 340.7C400.2 340.6 399.5 340.4 398.8 340.3C397.4 340.1 396 339.9 394.6 339.7H394.5C394.4 339.8 394.2 340 394.1 340.3C393.8 340.8 393.5 341.5 393.3 342.1C392.8 343.4 392.3 344.8 391.9 346.2C391 349 390 351.7 388.6 354.4C387.6 356.4 386.4 358.3 384.8 359.9L384.6 358.9C385.8 357.4 386.7 355.7 387.5 353.9C388.6 351.3 389.4 348.5 390.2 345.7C390.6 344.3 391 342.9 391.4 341.5C391.6 340.8 391.9 340.1 392.2 339.3C392.4 338.9 392.6 338.5 393 338.1C393.2 337.9 393.5 337.7 393.9 337.5C394.1 337.4 394.3 337.4 394.6 337.4H394.9C396.4 337.5 397.8 337.6 399.3 337.8C400 337.9 400.8 338 401.6 338.2C402.4 338.4 403.2 338.6 404.1 339.3C404.2 339.4 404.3 339.5 404.4 339.6C404.5 339.7 404.6 339.9 404.7 340.1C404.9 340.4 405 340.9 405 341.2C405 341.4 405 341.6 404.9 341.7L404.8 342.1C404.7 342.4 404.6 342.6 404.4 342.8C404.3 343 404.1 343.2 404 343.3L403.8 343.6L403.7 343.8C403.5 344 403.4 344.3 403.2 344.6C402.6 345.7 402 347.1 401.6 348.4C400.7 351.1 400 353.9 399.4 356.7C398.8 359.5 398.4 362.3 398.1 365.2C397.8 368 397.6 370.9 397.7 373.8C397.8 376.6 398 379.5 398.7 382.1C399.4 384.7 400.8 387.2 403 387.6C403.5 387.7 404.1 387.8 404.5 387.6C404.7 387.6 404.9 387.4 405.2 387.3C405.4 387.1 405.6 387 405.8 386.8C406.6 386 407.2 384.8 407.7 383.5C408.7 380.9 409.2 378.1 409.8 375.3C410.3 372.5 410.8 369.6 411.4 366.7C411.7 365.3 412.1 363.8 412.5 362.4C413 361 413.6 359.4 414.6 358.1C415.6 356.8 416.8 355.7 418.3 354.9C419 354.5 419.8 354.2 420.6 354C421.4 353.8 422.2 353.7 423.2 353.7L424.4 353.8L424.3 355.1C423.9 359.4 423.7 363.7 423.5 368C423.4 370.1 423.4 372.3 423.4 374.4C423.4 376.6 423.5 378.6 423.8 380.7C424.1 382.7 424.7 384.7 425.5 386.5C426.4 388.3 427.6 389.9 429.2 390.6C430.8 391.3 432.4 390.9 433.5 389.5C434.6 388.1 435.2 386.1 435.5 384.2L439.3 365.3L439.5 364.3H440.5L467 363.8H467.3L467.6 363.9C472.9 366.3 478.4 368.4 484 370.3C485.4 370.8 486.8 371.3 488.2 371.7C489.6 372.1 491 372.6 492.4 373C495.2 373.8 498.1 374.6 500.9 375.4C506.6 376.9 512.3 378.3 518.1 379C523.9 379.7 529.8 380.1 535.7 379.6C530.6 380.5 525.4 380.6 520.2 380.4C519.9 380.1 519.2 380.1 518.4 380Z" fill="#EDCFC5"/>
<path d="M293.4 312.901C293.2 311.601 293.7 310.4 294.5 309.7C295.3 309 296.4 308.701 297.5 308.901L375.8 325.601C377.2 325.901 378.3 327.101 378.5 328.501L389.8 406.301L313.9 385.801L306.1 383.7L299.5 346.7L298.8 342.901L297.5 335.7L293.4 312.901Z" fill="white"/>
<path d="M306.1 383.7L313.9 385.8L389.8 406.3C389.9 407.3 390 408.1 390.1 408.9C391.3 409 392.6 408.8 393.7 408.2L426.7 391.6C427.3 392.1 427.9 392.5 428.6 392.8C429.2 393.1 429.8 393.2 430.4 393.3L393.7 411.7C393 412.1 392.3 412.3 391.5 412.4C390.7 413.8 350.7 401.7 321.5 393.3C318.2 392.3 315 391.4 312.1 390.6C308.9 389.8 306.5 387.1 306.1 383.7Z" fill="white"/>
</svg>
