<svg width="101" height="27" viewBox="0 0 101 27" fill="none" xmlns="http://www.w3.org/2000/svg">
<path d="M34.7456 3.66361C34.7456 3.58483 34.7456 3.54543 34.8737 3.54543H41.1767C42.2473 3.48601 43.3171 3.67462 44.3027 4.09657C45.2884 4.51851 46.1633 5.16239 46.8593 5.97801C48.248 7.82149 48.9451 10.0941 48.829 12.3992C48.9632 14.652 48.2619 16.8752 46.8593 18.6432C46.1375 19.4176 45.2518 20.0211 44.267 20.4096C43.2822 20.798 42.223 20.9617 41.1669 20.8886H34.8638C34.8466 20.8901 34.8293 20.8878 34.8131 20.8819C34.7969 20.876 34.7822 20.8666 34.77 20.8544C34.7578 20.8422 34.7484 20.8275 34.7425 20.8113C34.7366 20.7951 34.7343 20.7778 34.7358 20.7606L34.7456 3.66361ZM41.226 5.63331H37.2176C37.129 5.63331 37.0896 5.63331 37.0896 5.76134V18.653C37.0896 18.7318 37.0896 18.7712 37.2176 18.7712H41.226C41.9541 18.8128 42.682 18.6861 43.3532 18.4008C44.0245 18.1156 44.621 17.6795 45.0964 17.1265C46.0988 15.755 46.5869 14.0746 46.4752 12.3795C46.5626 10.629 46.0712 8.8985 45.0767 7.45528C44.6299 6.86294 44.0462 6.38775 43.3755 6.07043C42.7049 5.75311 41.9673 5.60312 41.226 5.63331" fill="white"/>
<path d="M54.5019 3.66366V6.25381C54.5034 6.271 54.5011 6.28832 54.4952 6.30453C54.4893 6.32075 54.4799 6.33547 54.4677 6.34768C54.4555 6.35988 54.4408 6.36926 54.4246 6.37516C54.4084 6.38107 54.391 6.38335 54.3739 6.38184H51.7837C51.7049 6.38184 51.6655 6.38184 51.6655 6.25381V3.66366C51.664 3.64776 51.666 3.63172 51.6714 3.61669C51.6768 3.60166 51.6855 3.58801 51.6968 3.57671C51.7081 3.56542 51.7217 3.55676 51.7367 3.55136C51.7518 3.54596 51.7678 3.54395 51.7837 3.54548H54.3739C54.4526 3.54548 54.5019 3.54548 54.5019 3.66366V3.66366ZM54.2458 8.5879V20.8C54.2474 20.8159 54.2453 20.832 54.2399 20.847C54.2345 20.862 54.2259 20.8757 54.2146 20.887C54.2033 20.8983 54.1896 20.9069 54.1746 20.9123C54.1596 20.9177 54.1435 20.9197 54.1276 20.9182H52.0299C51.9413 20.9182 51.9019 20.9182 51.9019 20.8V8.54851C51.9019 8.46972 51.9019 8.43033 52.0299 8.43033H54.1079C54.1238 8.4288 54.1399 8.43081 54.1549 8.43621C54.1699 8.44161 54.1836 8.45027 54.1949 8.46156C54.2062 8.47286 54.2148 8.48651 54.2202 8.50154C54.2256 8.51657 54.2277 8.53261 54.2261 8.54851" fill="white"/>
<path d="M63.0793 23.9121C63.5665 23.958 64.0578 23.8933 64.5166 23.7228C64.9753 23.5522 65.3896 23.2803 65.7285 22.9273C66.3025 22.2301 66.6035 21.3481 66.5755 20.4455V19.7856C66.5755 19.7364 66.5755 19.7068 66.4869 19.6773C66.4578 19.6683 66.4265 19.6693 66.398 19.68C66.3695 19.6907 66.3453 19.7105 66.3293 19.7364C65.9558 20.1367 65.4984 20.4495 64.9899 20.6523C64.314 20.9896 63.5688 21.165 62.8134 21.1644C62.0253 21.1855 61.242 21.0353 60.5177 20.7242C59.7933 20.413 59.1451 19.9483 58.6179 19.3621C57.4767 18.0702 56.8802 16.3866 56.9535 14.6644C56.8747 12.9671 57.4412 11.3028 58.5391 10.0061C59.0757 9.41369 59.7356 8.94618 60.4724 8.63649C61.2092 8.3268 62.0049 8.18246 62.8035 8.21363C63.4817 8.22298 64.1512 8.36693 64.7732 8.63712C65.3648 8.85099 65.9049 9.18649 66.3588 9.62197C66.477 9.7303 66.5558 9.72045 66.605 9.62197L66.8513 8.63712C66.8513 8.55833 66.93 8.51894 66.9694 8.51894H68.821C68.9096 8.51894 68.949 8.51894 68.949 8.63712V20.4553C68.9764 21.2038 68.8468 21.9497 68.5687 22.6451C68.2905 23.3406 67.8699 23.9701 67.3338 24.4932C66.8007 25.0053 66.1706 25.4059 65.4806 25.6714C64.7907 25.9369 64.0546 26.062 63.3156 26.0394C61.9043 26.0997 60.5085 25.7249 59.3172 24.9659C58.8542 24.6919 58.4594 24.3165 58.1626 23.8678C57.8657 23.4192 57.6746 22.909 57.6035 22.3758C57.602 22.3599 57.604 22.3438 57.6094 22.3288C57.6148 22.3138 57.6235 22.3001 57.6348 22.2888C57.6461 22.2775 57.6597 22.2689 57.6747 22.2635C57.6898 22.2581 57.7058 22.256 57.7217 22.2576H59.8687C59.9212 22.2576 59.9606 22.297 59.9869 22.3758C60.1841 22.8348 60.5313 23.2133 60.9717 23.4492C61.6221 23.8158 62.3633 23.99 63.1088 23.9515L63.0793 23.9121ZM59.327 14.6939C59.2687 15.8313 59.6179 16.9522 60.3119 17.8553C60.639 18.2373 61.0478 18.5409 61.5081 18.7438C61.9683 18.9466 62.4683 19.0435 62.971 19.0273C63.4734 19.0522 63.9746 18.956 64.4321 18.747C64.8897 18.5379 65.2904 18.2219 65.6005 17.8258C66.2774 16.9102 66.6245 15.7925 66.5853 14.6545C66.626 13.5134 66.2788 12.3921 65.6005 11.4735C65.2904 11.0773 64.8897 10.7614 64.4321 10.5523C63.9746 10.3432 63.4734 10.2471 62.971 10.272C62.4576 10.251 61.9463 10.3485 61.4767 10.5569C61.007 10.7652 60.5916 11.0788 60.2626 11.4735C59.5704 12.385 59.2217 13.5114 59.2778 14.6545" fill="white"/>
<path d="M82.8056 20.8788H80.9541C80.9049 20.8788 80.8655 20.8788 80.8261 20.7606L80.5799 19.7758C80.5799 19.6379 80.4518 19.6182 80.3337 19.7265C79.3494 20.57 78.1124 21.0619 76.8177 21.125C76.018 21.1609 75.2202 21.0198 74.4813 20.7116C73.7425 20.4035 73.0808 19.9359 72.5435 19.3424C71.4437 18.0351 70.8775 16.3611 70.9579 14.6546C70.8765 12.9479 71.4428 11.2735 72.5435 9.96668C73.0815 9.37354 73.7431 8.90563 74.4816 8.59594C75.2201 8.28624 76.0176 8.1423 76.8177 8.17425C77.5627 8.17303 78.2977 8.34498 78.9647 8.67653C79.4714 8.89009 79.9352 9.19374 80.3337 9.57274C80.4026 9.64168 80.4518 9.66138 80.5011 9.63183C80.5236 9.62387 80.5432 9.60925 80.5573 9.5899C80.5714 9.57056 80.5792 9.5474 80.5799 9.5235V3.6144C80.5799 3.53562 80.5799 3.49622 80.7079 3.49622H82.8056C82.8215 3.4947 82.8376 3.49671 82.8526 3.50211C82.8676 3.50751 82.8813 3.51616 82.8926 3.52746C82.9039 3.53875 82.9125 3.5524 82.9179 3.56743C82.9233 3.58247 82.9253 3.59851 82.9238 3.6144V20.7606C82.9253 20.7765 82.9233 20.7926 82.9179 20.8076C82.9125 20.8226 82.9039 20.8363 82.8926 20.8476C82.8813 20.8589 82.8676 20.8675 82.8526 20.8729C82.8376 20.8783 82.8215 20.8803 82.8056 20.8788V20.8788ZM73.3018 14.6546C73.2436 15.792 73.5927 16.9129 74.2867 17.8159C74.6152 18.2118 75.0303 18.5269 75.4998 18.7369C75.9694 18.9469 76.481 19.0463 76.995 19.0273C77.4989 19.0521 78.0014 18.9561 78.4606 18.747C78.9198 18.538 79.3223 18.2221 79.6344 17.8258C80.291 16.903 80.6172 15.7857 80.5602 14.6546C80.6133 13.5208 80.2876 12.4017 79.6344 11.4735C79.326 11.0754 78.9256 10.7581 78.4676 10.5489C78.0096 10.3396 77.5077 10.2446 77.0049 10.272C76.4901 10.251 75.9773 10.3484 75.5061 10.5567C75.0349 10.765 74.6177 11.0787 74.2867 11.4735C73.5944 12.385 73.2457 13.5114 73.3018 14.6546" fill="white"/>
<path d="M89.2172 3.66365V6.2538C89.2187 6.271 89.2165 6.28831 89.2106 6.30452C89.2047 6.32074 89.1953 6.33547 89.1831 6.34767C89.1709 6.35987 89.1561 6.36925 89.1399 6.37516C89.1237 6.38106 89.1064 6.38334 89.0892 6.38184H86.5089C86.4203 6.38184 86.3809 6.38184 86.3809 6.2538V3.66365C86.3809 3.58487 86.3809 3.54547 86.5089 3.54547H89.0892C89.1778 3.54547 89.2172 3.54547 89.2172 3.66365ZM88.971 8.5879V20.8C88.971 20.8788 88.971 20.9182 88.843 20.9182H86.7453C86.7294 20.9197 86.7133 20.9177 86.6983 20.9123C86.6833 20.9069 86.6696 20.8983 86.6583 20.887C86.647 20.8757 86.6384 20.862 86.633 20.847C86.6276 20.832 86.6255 20.8159 86.6271 20.8V8.5485C86.6255 8.5326 86.6276 8.51656 86.633 8.50153C86.6384 8.4865 86.647 8.47285 86.6583 8.46155C86.6696 8.45026 86.6833 8.4416 86.6983 8.4362C86.7133 8.4308 86.7294 8.4288 86.7453 8.43032H88.843C88.9316 8.43032 88.971 8.43032 88.971 8.5485" fill="white"/>
<path d="M99.2732 10.272H98.0224C97.5695 10.26 97.1198 10.3523 96.7082 10.5419C96.2967 10.7315 95.9342 11.0131 95.6489 11.3652C95.0479 12.1065 94.7364 13.0409 94.7724 13.9947V20.7606C94.7739 20.7778 94.7716 20.7951 94.7657 20.8113C94.7598 20.8275 94.7505 20.8423 94.7383 20.8545C94.726 20.8667 94.7113 20.8761 94.6951 20.882C94.6789 20.8879 94.6616 20.8901 94.6444 20.8886H92.5171C92.4383 20.8886 92.3989 20.8394 92.3989 20.7606V8.54849C92.3974 8.53259 92.3994 8.51655 92.4048 8.50152C92.4102 8.48648 92.4189 8.47283 92.4302 8.46154C92.4415 8.45025 92.4551 8.44159 92.4701 8.43619C92.4852 8.43079 92.5012 8.42878 92.5171 8.4303H94.3686C94.3686 8.4303 94.4573 8.4303 94.4967 8.54849L94.7429 9.65152C94.7954 9.80253 94.884 9.80253 95.0088 9.65152C95.3778 9.21825 95.8288 8.86211 96.3358 8.60353C96.8428 8.34496 97.3959 8.18903 97.9633 8.1447H99.2141C99.2304 8.14333 99.2468 8.14538 99.2623 8.1507C99.2778 8.15603 99.292 8.16452 99.3041 8.17563C99.3161 8.18674 99.3257 8.20024 99.3323 8.21526C99.3388 8.23028 99.3422 8.2465 99.3421 8.26288V10.1144C99.3421 10.203 99.3421 10.2424 99.2141 10.2424" fill="white"/>
<path d="M12.478 0H0.492424C0.362615 0.00252128 0.238824 0.0552112 0.147018 0.147018C0.0552112 0.238824 0.00252128 0.362615 0 0.492424V23.8727C0.00252128 24.0025 0.0552112 24.1263 0.147018 24.2181C0.238824 24.3099 0.362615 24.3626 0.492424 24.3652H12.478C15.709 24.3652 18.8077 23.0816 21.0924 20.797C23.3771 18.5123 24.6606 15.4136 24.6606 12.1826C24.6606 8.95156 23.3771 5.85287 21.0924 3.56819C18.8077 1.28352 15.709 4.81459e-08 12.478 0ZM13.65 20.6818C11.8366 20.9939 9.97084 20.7207 8.32302 19.9018C6.67519 19.0828 5.33079 17.7607 4.48448 16.1267C3.63817 14.4928 3.33387 12.6319 3.61566 10.8135C3.89745 8.99512 4.7507 7.3136 6.05185 6.01245C7.353 4.7113 9.03451 3.85806 10.8529 3.57627C12.6713 3.29448 14.5322 3.59877 16.1661 4.44508C17.8001 5.2914 19.1222 6.6358 19.9412 8.28363C20.7601 9.93145 21.0333 11.7972 20.7212 13.6106C20.4175 15.3754 19.5746 17.0027 18.3084 18.269C17.0421 19.5352 15.4148 20.3781 13.65 20.6818" fill="white"/>
</svg>
